/* XPM */
static char *_b3e6907b8e1436dfe9fed82ccd56889xOtaFRZN1K32G6U9[] = {
/* columns rows colors chars-per-pixel */
"30 42 5 1 ",
"  c None",
". c #3840B0",
"X c #7080D8",
"o c #9098E8",
"O c #D8E8F8",
/* pixels */
"            oooOOO            ",
"            oooOOO            ",
"            oooOOO            ",
"         ooooooOOOOOO         ",
"         ooooooOOOOOO         ",
"         ooooooOOOOOO         ",
"         ooooooOOOOOO         ",
"         ooooooOOOOOO         ",
"         ooooooOOOOOO         ",
"      oooooooooOOOOOOOOO      ",
"      oooooooooOOOOOOOOO      ",
"      oooooooooOOOOOOOOO      ",
"   ooooooooooooOOOOOOOOOOOO   ",
"   ooooooooooooOOOOOOOOOOOO   ",
"   ooooooooooooOOOOOOOOOOOO   ",
"   ooooooooooooOOOOOOOOOOOO   ",
"   ooooooooooooOOOOOOOOOOOO   ",
"   ooooooooooooOOOOOOOOOOOO   ",
"oooooooooooooooOOOOOOOOOOOOOOO",
"oooooooooooooooOOOOOOOOOOOOOOO",
"oooooooooooooooOOOOOOOOOOOOOOO",
"...ooooooooooooOOOOOOOOOOOOXXX",
"...ooooooooooooOOOOOOOOOOOOXXX",
"...ooooooooooooOOOOOOOOOOOOXXX",
"   ......ooooooOOOOOOXXXXXX   ",
"   ......ooooooOOOOOOXXXXXX   ",
"   ......ooooooOOOOOOXXXXXX   ",
"   ............XXXXXXXXXXXX   ",
"   ............XXXXXXXXXXXX   ",
"   ............XXXXXXXXXXXX   ",
"      .........XXXXXXXXX      ",
"      .........XXXXXXXXX      ",
"      .........XXXXXXXXX      ",
"         ......XXXXXX         ",
"         ......XXXXXX         ",
"         ......XXXXXX         ",
"         ......XXXXXX         ",
"         ......XXXXXX         ",
"         ......XXXXXX         ",
"            ...XXX            ",
"            ...XXX            ",
"            ...XXX            "
};
