/* XPM */
static char *result[] = {
/* columns rows colors chars-per-pixel */
"48 114 19 1 ",
"  c #282828",
". c #C01820",
"X c #885828",
"o c #B86820",
"O c #F87800",
"+ c #509010",
"@ c #78B820",
"# c #389068",
"$ c #40D870",
"% c #E09050",
"& c #F0A068",
"* c #F0D840",
"= c #3840B0",
"- c #E860B0",
"; c #7080D8",
": c #9098E8",
"> c #D8E8F8",
", c #F8F8F8",
"< c None",
/* pixels */
"<<<<<<<<<<<<<<<<<<<<<:::>>><<<<<<<<<<<<<<<<<<<<<",
"<<<<<<<<<<<<<<<<<<<<<:::>>><<<<<<<<<<<<<<<<<<<<<",
"<<<<<<<<<<<<<<<<<<<<<:::>>><<<<<<<<<<<<<<<<<<<<<",
"<<<<<<<<<<<<<<<<<<::::::>>>>>><<<<<<<<<<<<<<<<<<",
"<<<<<<<<<<<<<<<<<<::::::>>>>>><<<<<<<<<<<<<<<<<<",
"<<<<<<<<<<<<<<<<<<::::::>>>>>><<<<<<<<<<<<<<<<<<",
"<<<<<<<<<<<<<<<<<<::::::>>>>>><<<<<<<<<<<<<<<<<<",
"<<<<<<<<<<<<<<<<<<::::::>>>>>><<<<<<<<<<<<<<<<<<",
"<<<<<<<<<<<<<<<<<<::::::>>>>>><<<<<<<<<<<<<<<<<<",
"<<<<<<<<<<<<<<<:::::::::>>>>>>>>><<<<<<<<<<<<<<<",
"<<<<<<<<<<<<<<<:::::::::>>>>>>>>><<<<<<<<<<<<<<<",
"<<<<<<<<<<<<<<<:::::::::>>>>>>>>><<<<<<<<<<<<<<<",
"<<<<<<<<<<<<::::::::::::>>>>>>>>>>>><<<<<<<<<<<<",
"<<<<<<<<<<<<::::::::::::>>>>>>>>>>>><<<<<<<<<<<<",
"<<<<<<<<<<<<::::::::::::>>>>>>>>>>>><<<<<<<<<<<<",
"<<<<<<<<<<<<::::::::::::>>>>>>>>>>>><<<<<<<<<<<<",
"<<<<<<<<<<<<::::::::::::>>>>>>>>>>>><<<<<<<<<<<<",
"<<<<<<<<<<<<::::::::::::>>>>>>>>>>>><<<<<<<<<<<<",
"<<<<<<<<<:::::::::::::::>>>>>>>>>>>>>>><<<<<<<<<",
"<<<<<<<<<:::::::::::::::>>>>>>>>>>>>>>><<<<<<<<<",
"<<<<<<<<<:::::::::::::::>>>>>>>>>>>>>>><<<<<<<<<",
"<<<<<<<<<===::::::::::::>>>>>>>>>>>>;;;<<<<<<<<<",
"<<<<<<<<<===::::::::::::>>>>>>>>>>>>;;;<<<<<<<<<",
"<<<<<<<<<===::::::::::::>>>>>>>>>>>>;;;<<<<<<<<<",
"<<<<<<<<<<<<======::::::>>>>>>;;;;;;<<<<<<<<<<<<",
"<<<<<<<<<<<<======::::::>>>>>>;;;;;;<<<<<<<<<<<<",
"<<<<<<<<<<<<======::::::>>>>>>;;;;;;<<<<<<<<<<<<",
"<<<<<<<<<<<<============;;;;;;;;;;;;<<<<<<<<<<<<",
"<<<<<<<<<<<<============;;;;;;;;;;;;<<<<<<<<<<<<",
"<<<<<<<<<<<<============;;;;;;;;;;;;<<<<<<<<<<<<",
"<<<<<<<<<<<<<<<=========;;;;;;;;;<<<<<<<<<<<<<<<",
"<<<<<<<<<<<<<<<=========;;;;;;;;;<<<<<<<<<<<<<<<",
"<<<<<<<<<<<<<<<=========;;;;;;;;;<<<<<<<<<<<<<<<",
"<<<<<<<<<<<<<<<<<<======;;;;;;<<<<<<<<<<<<<<<<<<",
"<<<<<<<<<<<<<<<<<<======;;;;;;<<<<<<<<<<<<<<<<<<",
"<<<<<<<<<<<<<<<<<<======;;;;;;<<<<<<<<<<<<<<<<<<",
"<<<<<<<<<<<<<<<<<<======;;;;;;<<<<<<<<<<<<<<<<<<",
"<<<<<<<<<<<<<<<<<<======;;;;;;<<<<<<<<<<<<<<<<<<",
"<<<<<<<<<<<<<<<<<<======;;;;;;<<<<<<<<<<<<<<<<<<",
"<<<<<<<<<<<<<<<<<<<<<===;;;<<<<<<<<<<<<<<<<<<<<<",
"<<<<<<<<<<<<<<<<<<<<<===;;;<<<<<<<<<<<<<<<<<<<<<",
"<<<<<<<<<<<<<<<<<<<<<===;;;<<<<<<<<<<<<<<<<<<<<<",
"<<<      <<<<<<<<<<<<<<<<<<<<<<<<<<<<<<      <<<",
"<<<      <<<<<<<<<<<<<<<<<<<<<<<<<<<<<<      <<<",
"<<<      <<<<<<<<<<<<<<<<<<<<<<<<<<<<<<      <<<",
"   %%%%%%   <<<<<<<<<      <<<<<<<<<   %%%%%%   ",
"   %%%%%%   <<<<<<<<<      <<<<<<<<<   %%%%%%   ",
"   %%%%%%   <<<<<<<<<      <<<<<<<<<   %%%%%%   ",
"   %%%%%%   <<<      ++++++      <<<   %%%%%%   ",
"   %%%%%%   <<<      ++++++      <<<   %%%%%%   ",
"   %%%%%%   <<<      ++++++      <<<   %%%%%%   ",
"   %%%%%%%%%   +++@@@@@@@@@@@@+++   %%%%%%%%%   ",
"   %%%%%%%%%   +++@@@@@@@@@@@@+++   %%%%%%%%%   ",
"   %%%%%%%%%   +++@@@@@@@@@@@@+++   %%%%%%%%%   ",
"            +++                  +++            ",
"            +++                  +++            ",
"            +++                  +++            ",
"   XXXXXX      ------------------      XXXXXX   ",
"   XXXXXX      ------------------      XXXXXX   ",
"   XXXXXX      ------------------      XXXXXX   ",
"   XXXXXX   ---                  ---   XXXXXX   ",
"   XXXXXX   ---                  ---   XXXXXX   ",
"   XXXXXX   ---                  ---   XXXXXX   ",
"<<<   XXX      ,,,   oooooo   ,,,      XXX   <<<",
"<<<   XXX      ,,,   oooooo   ,,,      XXX   <<<",
"<<<   XXX      ,,,   oooooo   ,,,      XXX   <<<",
"<<<   XXX   ooo,,,   oooooo   ,,,ooo   XXX   <<<",
"<<<   XXX   ooo,,,   oooooo   ,,,ooo   XXX   <<<",
"<<<   XXX   ooo,,,   oooooo   ,,,ooo   XXX   <<<",
"<<<   XXXoooooo,,,,,,oooooo,,,,,,ooooooXXX   <<<",
"<<<   XXXoooooo,,,,,,oooooo,,,,,,ooooooXXX   <<<",
"<<<   XXXoooooo,,,,,,oooooo,,,,,,ooooooXXX   <<<",
"<<<   XXX   ooo&&&&&&&&&&&&&&&&&&ooo   XXX   <<<",
"<<<   XXX   ooo&&&&&&&&&&&&&&&&&&ooo   XXX   <<<",
"<<<   XXX   ooo&&&&&&&&&&&&&&&&&&ooo   XXX   <<<",
"<<<<<<   XXX   &&&&&&......&&&&&&   XXX   <<<<<<",
"<<<<<<   XXX   &&&&&&......&&&&&&   XXX   <<<<<<",
"<<<<<<   XXX   &&&&&&......&&&&&&   XXX   <<<<<<",
"<<<<<<   XXX      oooooooooooo      XXX   <<<<<<",
"<<<<<<   XXX      oooooooooooo      XXX   <<<<<<",
"<<<<<<   XXX      oooooooooooo      XXX   <<<<<<",
"<<<<<<<<<   ######            ######   <<<<<<<<<",
"<<<<<<<<<   ######            ######   <<<<<<<<<",
"<<<<<<<<<   ######            ######   <<<<<<<<<",
"<<<<<<<<<   ###$$$############$$$###   <<<<<<<<<",
"<<<<<<<<<   ###$$$############$$$###   <<<<<<<<<",
"<<<<<<<<<   ###$$$############$$$###   <<<<<<<<<",
"<<<<<<<<<   ###$$$$$$$$$$$$$$$$$$###   <<<<<<<<<",
"<<<<<<<<<   ###$$$$$$$$$$$$$$$$$$###   <<<<<<<<<",
"<<<<<<<<<   ###$$$$$$$$$$$$$$$$$$###   <<<<<<<<<",
"<<<<<<   ***   ######$$$$$$######   ***   <<<<<<",
"<<<<<<   ***   ######$$$$$$######   ***   <<<<<<",
"<<<<<<   ***   ######$$$$$$######   ***   <<<<<<",
"<<<   ######******   ******   ******######   <<<",
"<<<   ######******   ******   ******######   <<<",
"<<<   ######******   ******   ******######   <<<",
"<<<         ######************######         <<<",
"<<<         ######************######         <<<",
"<<<         ######************######         <<<",
"   OOO...         ############         ...OOO   ",
"   OOO...         ############         ...OOO   ",
"   OOO...         ############         ...OOO   ",
"   OOOOOO...   <<<            <<<   ...OOOOOO   ",
"   OOOOOO...   <<<            <<<   ...OOOOOO   ",
"   OOOOOO...   <<<            <<<   ...OOOOOO   ",
"               <<<<<<<<<<<<<<<<<<               ",
"               <<<<<<<<<<<<<<<<<<               ",
"               <<<<<<<<<<<<<<<<<<               ",
"<<<<<<<<<<<<<<<<<<<<<<<<<<<<<<<<<<<<<<<<<<<<<<<<",
"<<<<<<<<<<<<<<<<<<<<<<<<<<<<<<<<<<<<<<<<<<<<<<<<",
"<<<<<<<<<<<<<<<<<<<<<<<<<<<<<<<<<<<<<<<<<<<<<<<<",
"<<<<<<<<<<<<<<<<<<<<<<<<<<<<<<<<<<<<<<<<<<<<<<<<",
"<<<<<<<<<<<<<<<<<<<<<<<<<<<<<<<<<<<<<<<<<<<<<<<<",
"<<<<<<<<<<<<<<<<<<<<<<<<<<<<<<<<<<<<<<<<<<<<<<<<"
};
