/* XPM */
static char *result[] = {
/* columns rows colors chars-per-pixel */
"54 51 6 1 ",
"  c gray20",
". c gray40",
"X c #6699FF",
"o c #99CCFF",
"O c white",
"+ c None",
/* pixels */
"+++++++++++++++...++++++++++++++++++++++++++++++++++++",
"+++++++++++++++...++++++++++++++++++++++++++++++++++++",
"+++++++++++++++...++++++++++++++++++++++++++++++++++++",
"+++...++++++...OOO                  ++++++++++++...+++",
"+++...++++++...OOO                  ++++++++++++...+++",
"+++...++++++...OOO                  ++++++++++++...+++",
"...OOO...+++      OOOXXXXXXXXXXXXXXX      +++...OOO...",
"...OOO...+++      OOOXXXXXXXXXXXXXXX      +++...OOO...",
"...OOO...+++      OOOXXXXXXXXXXXXXXX      +++...OOO...",
"+++...OOO   XXXXXXoooOOOooooooooooooXXXXXX   OOO...+++",
"+++...OOO   XXXXXXoooOOOooooooooooooXXXXXX   OOO...+++",
"+++...OOO   XXXXXXoooOOOooooooooooooXXXXXX   OOO...+++",
"++++++   OOOooooooooooooOOOOOOooooooooooooOOO   ++++++",
"++++++   OOOooooooooooooOOOOOOooooooooooooOOO   ++++++",
"++++++   OOOooooooooooooOOOOOOooooooooooooOOO   ++++++",
"++++++   XXXOOOooooooOOOOOOOOOOOOooooooOOOXXX   ...+++",
"++++++   XXXOOOooooooOOOOOOOOOOOOooooooOOOXXX   ...+++",
"++++++   XXXOOOooooooOOOOOOOOOOOOooooooOOOXXX   ...+++",
"+++   XXXooooooooo   OOOOOOOOOOOO   oooooooooXXXOOO...",
"+++   XXXooooooooo   OOOOOOOOOOOO   oooooooooXXXOOO...",
"+++   XXXooooooooo   OOOOOOOOOOOO   oooooooooXXXOOO...",
"+++   XXXooooooooo      OOOOOO      oooooooooOOO   +++",
"+++   XXXooooooooo      OOOOOO      oooooooooOOO   +++",
"+++   XXXooooooooo      OOOOOO      oooooooooOOO   +++",
"+++   XXXoooooooooOOO   OOOOOO   OOOooooooOOOXXX   +++",
"+++   XXXoooooooooOOO   OOOOOO   OOOooooooOOOXXX   +++",
"+++   XXXoooooooooOOO   OOOOOO   OOOooooooOOOXXX   +++",
"+++...   XXXoooooooooOOOOOOOOOOOOoooooooooXXX   ++++++",
"+++...   XXXoooooooooOOOOOOOOOOOOoooooooooXXX   ++++++",
"+++...   XXXoooooooooOOOOOOOOOOOOoooooooooXXX   ++++++",
"   OOOOOOOOOOOOooooooooooooooooooOOOooooooXXX   ++++++",
"   OOOOOOOOOOOOooooooooooooooooooOOOooooooXXX   ++++++",
"   OOOOOOOOOOOOooooooooooooooooooOOOooooooXXX   ++++++",
"+++         XXXXXXooooooooooooooooooOOOXXX      ++++++",
"+++         XXXXXXooooooooooooooooooOOOXXX      ++++++",
"+++         XXXXXXooooooooooooooooooOOOXXX      ++++++",
"+++   ooo         XXXooooooooooooXXX   OOO   ooo   +++",
"+++   ooo         XXXooooooooooooXXX   OOO   ooo   +++",
"+++   ooo         XXXooooooooooooXXX   OOO   ooo   +++",
"++++++   oooooo      XXXXXXXXXXXX         OOO   ++++++",
"++++++   oooooo      XXXXXXXXXXXX         OOO   ++++++",
"++++++   oooooo      XXXXXXXXXXXX         OOO   ++++++",
"+++++++++      ooo                  ooo      +++++++++",
"+++++++++      ooo                  ooo      +++++++++",
"+++++++++      ooo                  ooo      +++++++++",
"+++++++++   ooo      ooo      ooo      ooo   +++++++++",
"+++++++++   ooo      ooo      ooo      ooo   +++++++++",
"+++++++++   ooo      ooo      ooo      ooo   +++++++++",
"++++++++++++   ++++++   ++++++   ++++++   ++++++++++++",
"++++++++++++   ++++++   ++++++   ++++++   ++++++++++++",
"++++++++++++   ++++++   ++++++   ++++++   ++++++++++++"
};
