/* XPM */
static char *result[] = {
/* columns rows colors chars-per-pixel */
"54 51 9 1 ",
"  c gray20",
". c gray40",
"X c #3366CC",
"o c #6699FF",
"O c #66CCCC",
"+ c #99FFCC",
"@ c #99CCFF",
"# c white",
"$ c None",
/* pixels */
"$$$$$$$$$$$$$$$$$$$$$$$$$$$$$$$$$$$$$$$$$$$$$$$$$$$$$$",
"$$$$$$$$$$$$$$$$$$$$$$$$$$$$$$$$$$$$$$$$$$$$$$$$$$$$$$",
"$$$$$$$$$$$$$$$$$$$$$$$$$$$$$$$$$$$$$$$$$$$$$$$$$$$$$$",
"$$$$$$$$$$$$$$$$$$                  $$$$$$$$$$$$$$$$$$",
"$$$$$$$$$$$$$$$$$$                  $$$$$$$$$$$$$$$$$$",
"$$$$$$$$$$$$$$$$$$                  $$$$$$$$$$$$$$$$$$",
"$$$$$$$$$$$$      XXXXXXXXXXXXXXXXXX      $$$$$$$$$$$$",
"$$$$$$$$$$$$      XXXXXXXXXXXXXXXXXX      $$$$$$$$$$$$",
"$$$$$$$$$$$$      XXXXXXXXXXXXXXXXXX      $$$$$$$$$$$$",
"$$$$$$$$$   XXXXXXXXXXXXooooooXXXXXXXXXXXX   $$$$$$$$$",
"$$$$$$$$$   XXXXXXXXXXXXooooooXXXXXXXXXXXX   $$$$$$$$$",
"$$$$$$$$$   XXXXXXXXXXXXooooooXXXXXXXXXXXX   $$$$$$$$$",
"$$$$$$   XXXXXXXXXoooooo@@@@@@ooooooXXXXXXXXX   $$$$$$",
"$$$$$$   XXXXXXXXXoooooo@@@@@@ooooooXXXXXXXXX   $$$$$$",
"$$$$$$   XXXXXXXXXoooooo@@@@@@ooooooXXXXXXXXX   $$$$$$",
"$$$$$$   XXXXXXXXX   oooooooooooo   XXXXXXXXX   $$$$$$",
"$$$$$$   XXXXXXXXX   oooooooooooo   XXXXXXXXX   $$$$$$",
"$$$$$$   XXXXXXXXX   oooooooooooo   XXXXXXXXX   $$$$$$",
"$$$   XXXXXXXXXXXX###   oooooo   ###XXXXXXXXXXXX   $$$",
"$$$   XXXXXXXXXXXX###   oooooo   ###XXXXXXXXXXXX   $$$",
"$$$   XXXXXXXXXXXX###   oooooo   ###XXXXXXXXXXXX   $$$",
"$$$   oooXXXXXXXXX######XXXXXX######XXXXXXXXXooo   $$$",
"$$$   oooXXXXXXXXX######XXXXXX######XXXXXXXXXooo   $$$",
"$$$   oooXXXXXXXXX######XXXXXX######XXXXXXXXXooo   $$$",
"$$$   @@@oooXXXXXXXXX###XXXXXX###XXXXXXXXXooo@@@   $$$",
"$$$   @@@oooXXXXXXXXX###XXXXXX###XXXXXXXXXooo@@@   $$$",
"$$$   @@@oooXXXXXXXXX###XXXXXX###XXXXXXXXXooo@@@   $$$",
"$$$$$$   @@@oooXXXXXXXXXXXXXXXXXXXXXXXXooo@@@   $$$$$$",
"$$$$$$   @@@oooXXXXXXXXXXXXXXXXXXXXXXXXooo@@@   $$$$$$",
"$$$$$$   @@@oooXXXXXXXXXXXXXXXXXXXXXXXXooo@@@   $$$$$$",
"$$$$$$   ######ooooooXXXXXXXXXXXXoooooo######   $$$$$$",
"$$$$$$   ######ooooooXXXXXXXXXXXXoooooo######   $$$$$$",
"$$$$$$   ######ooooooXXXXXXXXXXXXoooooo######   $$$$$$",
"$$$$$$$$$   #########oooooooooooo#########   $$$$$$$$$",
"$$$$$$$$$   #########oooooooooooo#########   $$$$$$$$$",
"$$$$$$$$$   #########oooooooooooo#########   $$$$$$$$$",
"$$$$$$   OOO      ##################      OOO   $$$$$$",
"$$$$$$   OOO      ##################      OOO   $$$$$$",
"$$$$$$   OOO      ##################      OOO   $$$$$$",
"$$$   +++   +++OOO   ############   OOO+++   +++   $$$",
"$$$   +++   +++OOO   ############   OOO+++   +++   $$$",
"$$$   +++   +++OOO   ############   OOO+++   +++   $$$",
"$$$$$$   ...   ++++++            ++++++   ...   $$$$$$",
"$$$$$$   ...   ++++++            ++++++   ...   $$$$$$",
"$$$$$$   ...   ++++++            ++++++   ...   $$$$$$",
"$$$$$$$$$$$$   +++      ++++++      +++   $$$$$$$$$$$$",
"$$$$$$$$$$$$   +++      ++++++      +++   $$$$$$$$$$$$",
"$$$$$$$$$$$$   +++      ++++++      +++   $$$$$$$$$$$$",
"$$$$$$$$$$$$$$$   $$$$$$      $$$$$$   $$$$$$$$$$$$$$$",
"$$$$$$$$$$$$$$$   $$$$$$      $$$$$$   $$$$$$$$$$$$$$$",
"$$$$$$$$$$$$$$$   $$$$$$      $$$$$$   $$$$$$$$$$$$$$$"
};
