/* XPM */
static char *result[] = {
/* columns rows colors chars-per-pixel */
"48 48 9 1 ",
"  c gray20",
". c #336633",
"X c #3366CC",
"o c #6699FF",
"O c #66CCCC",
"+ c #99FFCC",
"@ c #99CCFF",
"# c white",
"$ c None",
/* pixels */
"$$$$$$$$$$$$$$$$$$$$$$$$$$$$$$$$$$$$$$$$$$$$$$$$",
"$$$$$$$$$$$$$$$$$$$$$$$$$$$$$$$$$$$$$$$$$$$$$$$$",
"$$$$$$$$$$$$$$$$$$$$$$$$$$$$$$$$$$$$$$$$$$$$$$$$",
"$$$$$$$$$$$$$$$$$$            $$$$$$$$$$$$$$$$$$",
"$$$$$$$$$$$$$$$$$$            $$$$$$$$$$$$$$$$$$",
"$$$$$$$$$$$$$$$$$$            $$$$$$$$$$$$$$$$$$",
"$$$$$$$$$$$$      XXXXXXXXXXXX      $$$$$$$$$$$$",
"$$$$$$$$$$$$      XXXXXXXXXXXX      $$$$$$$$$$$$",
"$$$$$$$$$$$$      XXXXXXXXXXXX      $$$$$$$$$$$$",
"$$$$$$$$$   XXXXXXXXXooooooXXXXXXXXX   $$$$$$$$$",
"$$$$$$$$$   XXXXXXXXXooooooXXXXXXXXX   $$$$$$$$$",
"$$$$$$$$$   XXXXXXXXXooooooXXXXXXXXX   $$$$$$$$$",
"$$$$$$   XXXXXXXXXooo@@@@@@oooXXXXXXXXX   $$$$$$",
"$$$$$$   XXXXXXXXXooo@@@@@@oooXXXXXXXXX   $$$$$$",
"$$$$$$   XXXXXXXXXooo@@@@@@oooXXXXXXXXX   $$$$$$",
"$$$$$$   XXXXXX   XXXooooooXXX   XXXXXX   $$$$$$",
"$$$$$$   XXXXXX   XXXooooooXXX   XXXXXX   $$$$$$",
"$$$$$$   XXXXXX   XXXooooooXXX   XXXXXX   $$$$$$",
"$$$   oooXXXXXX###   XXXXXX   ###XXXXXXooo   $$$",
"$$$   oooXXXXXX###   XXXXXX   ###XXXXXXooo   $$$",
"$$$   oooXXXXXX###   XXXXXX   ###XXXXXXooo   $$$",
"$$$   @@@oooXXX######XXXXXX######XXXooo@@@   $$$",
"$$$   @@@oooXXX######XXXXXX######XXXooo@@@   $$$",
"$$$   @@@oooXXX######XXXXXX######XXXooo@@@   $$$",
"$$$   ###@@@oooooo###XXXXXX###oooooo@@@###   $$$",
"$$$   ###@@@oooooo###XXXXXX###oooooo@@@###   $$$",
"$$$   ###@@@oooooo###XXXXXX###oooooo@@@###   $$$",
"$$$   ############oooooooooooo############   $$$",
"$$$   ############oooooooooooo############   $$$",
"$$$   ############oooooooooooo############   $$$",
"$$$$$$      ########################      $$$$$$",
"$$$$$$      ########################      $$$$$$",
"$$$$$$      ########################      $$$$$$",
"$$$$$$   OOO   ##################   OOO   $$$$$$",
"$$$$$$   OOO   ##################   OOO   $$$$$$",
"$$$$$$   OOO   ##################   OOO   $$$$$$",
"$$$$$$   +++                        +++   $$$$$$",
"$$$$$$   +++                        +++   $$$$$$",
"$$$$$$   +++                        +++   $$$$$$",
"$$$$$$$$$      ++++++      ++++++      $$$$$$$$$",
"$$$$$$$$$      ++++++      ++++++      $$$$$$$$$",
"$$$$$$$$$      ++++++      ++++++      $$$$$$$$$",
"$$$$$$$$$$$$...   +++      +++   $$$$$$$$$$$$$$$",
"$$$$$$$$$$$$...   +++      +++   $$$$$$$$$$$$$$$",
"$$$$$$$$$$$$...   +++      +++   $$$$$$$$$$$$$$$",
"$$$$$$$$$$$$$$$$$$   $$$$$$   $$$$$$$$$$$$$$$$$$",
"$$$$$$$$$$$$$$$$$$   $$$$$$   $$$$$$$$$$$$$$$$$$",
"$$$$$$$$$$$$$$$$$$   $$$$$$   $$$$$$$$$$$$$$$$$$"
};
