/* XPM */
static char *_00e851be87a438cd01bc24de43b97cdcPPrGj2maBUSV9Hs[] = {
/* columns rows colors chars-per-pixel */
"71 97 15 1 ",
"  c None",
". c #282828",
"X c #C01820",
"o c #885828",
"O c #B86820",
"+ c #F87800",
"@ c #509010",
"# c #78B820",
"$ c #389068",
"% c #40D870",
"& c #F0A068",
"* c #F0D840",
"= c #F8F848",
"- c #E860B0",
"; c #F8F8F8",
/* pixels */
"                                                                       ",
"                                                                       ",
"                                                                       ",
"                                                                       ",
"                                                                       ",
"                                                                       ",
"                                                                       ",
"                                                                       ",
"                                                                       ",
"                                                                       ",
"                                                                       ",
"                                                                       ",
"                                                                       ",
"                                                                       ",
"                                                                       ",
"                                                                       ",
"                                                                       ",
"                                                                       ",
"                                          ;;;======                    ",
"                                          ;;;======                    ",
"                                          ;;;======                    ",
"                                       ;;;;;;;;;======                 ",
"                                       ;;;;;;;;;======                 ",
"                                       ;;;;;;;;;======                 ",
"                                    ;;;;;;;;;=========                 ",
"                  ............      ;;;;;;;;;=========                 ",
"                  ............      ;;;;;;;;;=========                 ",
"                  ............   ;;;;;;;;;      ======                 ",
"            ......@@@@@@@@@@@@......;;;;;;      ======                 ",
"            ......@@@@@@@@@@@@......;;;;;;      ======                 ",
"            ......@@@@@@@@@@@@......;;;            ======              ",
"   ...   ...@@@@@@###############@@@...   ...      ======              ",
"   ...   ...@@@@@@###############@@@...   ...      ======              ",
"   ...   ...@@@@@@###############@@@...   ...      ======              ",
"...&&&......@@@#########@@@@@@@@@@@@......&&&...   ======              ",
"...&&&......@@@#########@@@@@@@@@@@@......&&&...   ======              ",
"...&&&......@@@#########@@@@@@@@@@@@......&&&...   ======              ",
"...&&&......@@@###@@@@@@......@@@@@@@@@...&&&...   ======              ",
"...&&&......@@@###@@@@@@......@@@@@@@@@...&&&...   ======              ",
"...&&&......@@@###@@@@@@......@@@@@@@@@...&&&...      ======           ",
"...OOO...+++...@@@...@@@@@@@@@@@@...+++...OOO...      ======           ",
"...OOO...+++...@@@...@@@@@@@@@@@@...+++...OOO...      ======           ",
"...OOO...+++...@@@...@@@@@@@@@@@@...+++...OOO...      ======           ",
"...OOOOOO...+++...@@@#########;;;@@@......OOO...      ======           ",
"...OOOOOO...+++...@@@#########;;;@@@......OOO...      ======           ",
"...OOOOOO...+++...@@@#########;;;@@@......OOO...      ======           ",
"...OOOOOO......+++...@@@@@@######@@@...OOOOOO...      ======           ",
"...OOOOOO......+++...@@@@@@######@@@...OOOOOO...      ======           ",
"...OOOOOO......+++...@@@@@@######@@@...OOOOOO...         ===           ",
"   ......---............@@@######@@@...---...            ===           ",
"   ......---............@@@######@@@...---...            ===           ",
"   ......---............@@@######@@@...---...            ===           ",
"      ...---------......@@@@@@###...---...               ===           ",
"      ...---------......@@@@@@###...---...               ===           ",
"      ...---------......@@@@@@###...---...                             ",
"         ...---------...@@@@@@###......                                ",
"         ...---------...@@@@@@###......                                ",
"         ...---------...@@@@@@###......                  ===           ",
"      ...   ......------...@@@###.........               ===           ",
"      ...   ......------...@@@###.........               ===           ",
"      ...   ......------...@@@###.........                             ",
"   ...ooo...$$$$$$..................oooooo...                          ",
"   ...ooo...$$$$$$..................oooooo...                          ",
"   ...ooo...$$$$$$..................oooooo...                          ",
"   ...ooo...$$$$$$$$$$$$$$$$$$%%%...ooooooooo...                       ",
"   ...ooo...$$$$$$$$$$$$$$$$$$%%%...ooooooooo...                       ",
"   ...ooo...$$$$$$$$$$$$$$$$$$%%%...ooooooooo...                       ",
"      ......$$$$$$%%%%%%%%%%%%%%%$$$...oooooo...                       ",
"      ......$$$$$$%%%%%%%%%%%%%%%$$$...oooooo...                       ",
"      ......$$$$$$%%%%%%%%%%%%%%%$$$...oooooo...                       ",
"      ...$$$$$$$$$%%%%%%%%%%%%%%%$$$$$$.........                       ",
"      ...$$$$$$$$$%%%%%%%%%%%%%%%$$$$$$.........                       ",
"      ...$$$$$$$$$%%%%%%%%%%%%%%%$$$$$$.........                       ",
"      ...***$$$$$$$$$%%%%%%%%%$$$$$$***$$$...                          ",
"      ...***$$$$$$$$$%%%%%%%%%$$$$$$***$$$...                          ",
"      ...***$$$$$$$$$%%%%%%%%%$$$$$$***$$$...                          ",
"      ...$$$******$$$$$$$$$$$$******$$$...                             ",
"      ...$$$******$$$$$$$$$$$$******$$$...                             ",
"      ...$$$******$$$$$$$$$$$$******$$$...                             ",
"         ...$$$$$$************$$$$$$......                             ",
"         ...$$$$$$************$$$$$$......                             ",
"         ...$$$$$$************$$$$$$......                             ",
"         .........$$$$$$$$$$$$......OOOXXX...                          ",
"         .........$$$$$$$$$$$$......OOOXXX...                          ",
"         .........$$$$$$$$$$$$......OOOXXX...                          ",
"            .....................OOOOOOXXX...                          ",
"            .....................OOOOOOXXX...                          ",
"            .....................OOOOOOXXX...                          ",
"                              ...XXXXXXXXX...                          ",
"                              ...XXXXXXXXX...                          ",
"                              ...XXXXXXXXX...                          ",
"                                 .........                             ",
"                                 .........                             ",
"                                 .........                             ",
"                                                                       ",
"                                                                       ",
"                                                                       "
};
