/* XPM */
static char *_e67d2d8401a48d0f908825ae965d5efOGFibg60RGVQcTr2[] = {
/* columns rows colors chars-per-pixel */
"78 84 17 1 ",
"  c None",
". c #282828",
"X c gray22",
"o c #C01820",
"O c #885828",
"+ c #B86820",
"@ c #F87800",
"# c #509010",
"$ c #78B820",
"% c #389068",
"& c #40D870",
"* c #F0A068",
"= c #F0D840",
"- c #F8F848",
"; c #E860B0",
": c #6888B8",
"> c #F8F8F8",
/* pixels */
"                           ---------------   ---                              ",
"                           ---------------   ---                              ",
"                           ---------------   ---                              ",
"                  ------------------                                          ",
"                  ------------------                                          ",
"                  ------------------                                          ",
"         ------------------                                                   ",
"         ------------------                                                   ",
"         ------------------                                                   ",
"      ------------                              ............                  ",
"      ------------                              ............                  ",
"      ------------                              ............                  ",
"      --->>>---                           ......############......            ",
"      --->>>---                           ......############......            ",
"      --->>>---                           ......############......            ",
"      >>>>>>>>>                  ...   ...######$$$$$$$$$$$$$$$###...   ...   ",
"      >>>>>>>>>                  ...   ...######$$$$$$$$$$$$$$$###...   ...   ",
"      >>>>>>>>>                  ...   ...######$$$$$$$$$$$$$$$###...   ...   ",
"         >>>>>>>>>            ...***......###$$$$$$$$$############......***...",
"         >>>>>>>>>            ...***......###$$$$$$$$$############......***...",
"         >>>>>>>>>            ...***......###$$$$$$$$$############......***...",
"            >>>>>>>>>         ...***......###$$$######......#########...***...",
"            >>>>>>>>>         ...***......###$$$######......#########...***...",
"            >>>>>>>>>         ...***......###$$$######......#########...***...",
"               >>>>>>>>>      ...+++...@@@...###...############...@@@...+++...",
"               >>>>>>>>>      ...+++...@@@...###...############...@@@...+++...",
"               >>>>>>>>>      ...+++...@@@...###...############...@@@...+++...",
"                  >>>>>>>>>XXX...++++++...@@@...###$$$$$$$$$>>>###......+++...",
"                  >>>>>>>>>XXX...++++++...@@@...###$$$$$$$$$>>>###......+++...",
"                  >>>>>>>>>XXX...++++++...@@@...###$$$$$$$$$>>>###......+++...",
"                     >>>>>>>>>...++++++......@@@...######$$$$$$###...++++++...",
"                     >>>>>>>>>...++++++......@@@...######$$$$$$###...++++++...",
"                     >>>>>>>>>...++++++......@@@...######$$$$$$###...++++++...",
"                     XXX>>>::::::......;;;............###$$$$$$###...;;;...   ",
"                     XXX>>>::::::......;;;............###$$$$$$###...;;;...   ",
"                     XXX>>>::::::......;;;............###$$$$$$###...;;;...   ",
"                  XXX:::::::::XXX......;;;;;;;;;......######$$$...;;;...      ",
"                  XXX:::::::::XXX......;;;;;;;;;......######$$$...;;;...      ",
"                  XXX:::::::::XXX......;;;;;;;;;......######$$$...;;;...      ",
"                     XXXXXXXXX...OOO......;;;;;;;;;...######$$$......         ",
"                     XXXXXXXXX...OOO......;;;;;;;;;...######$$$......         ",
"                     XXXXXXXXX...OOO......;;;;;;;;;...######$$$......         ",
"                              ...OOOOOO.........;;;;;;...###$$$.........      ",
"                              ...OOOOOO.........;;;;;;...###$$$.........      ",
"                              ...OOOOOO.........;;;;;;...###$$$.........      ",
"                                 ...OOOOOO...%%%...............%%%...OOO...   ",
"                                 ...OOOOOO...%%%...............%%%...OOO...   ",
"                                 ...OOOOOO...%%%...............%%%...OOO...   ",
"                                 ...OOO...%%%%%%%%%%%%%%%%%%&&&%%%...OOOOOO...",
"                                 ...OOO...%%%%%%%%%%%%%%%%%%&&&%%%...OOOOOO...",
"                                 ...OOO...%%%%%%%%%%%%%%%%%%&&&%%%...OOOOOO...",
"                                    ......%%%%%%&&&&&&&&&&&&&&&&&&%%%...OOO...",
"                                    ......%%%%%%&&&&&&&&&&&&&&&&&&%%%...OOO...",
"                                    ......%%%%%%&&&&&&&&&&&&&&&&&&%%%...OOO...",
"                                       ...%%%%%%&&&&&&&&&&&&&&&&&&%%%......   ",
"                                       ...%%%%%%&&&&&&&&&&&&&&&&&&%%%......   ",
"                                       ...%%%%%%&&&&&&&&&&&&&&&&&&%%%......   ",
"                                    ...%%%===%%%%%%&&&&&&&&&&&&%%%===...      ",
"                                    ...%%%===%%%%%%&&&&&&&&&&&&%%%===...      ",
"                                    ...%%%===%%%%%%&&&&&&&&&&&&%%%===...      ",
"                                    ...%%%%%%===%%%%%%%%%%%%======%%%...      ",
"                                    ...%%%%%%===%%%%%%%%%%%%======%%%...      ",
"                                    ...%%%%%%===%%%%%%%%%%%%======%%%...      ",
"                                       ...%%%%%%============%%%%%%%%%...      ",
"                                       ...%%%%%%============%%%%%%%%%...      ",
"                                       ...%%%%%%============%%%%%%%%%...      ",
"                                       ......%%%%%%%%%%%%%%%%%%............   ",
"                                       ......%%%%%%%%%%%%%%%%%%............   ",
"                                       ......%%%%%%%%%%%%%%%%%%............   ",
"                                          .....................ooooooooo...   ",
"                                          .....................ooooooooo...   ",
"                                          .....................ooooooooo...   ",
"                                                         ...ooo............   ",
"                                                         ...ooo............   ",
"                                                         ...ooo............   ",
"                                                         ..................   ",
"                                                         ..................   ",
"                                                         ..................   ",
"                                                            ............      ",
"                                                            ............      ",
"                                                            ............      ",
"                                                                              ",
"                                                                              ",
"                                                                              "
};
