/* XPM */
static char *c2eedddd4d5e4a12c3c97204743045de3CZGLgxEFuepZBM3[] = {
/* columns rows colors chars-per-pixel */
"48 108 14 1 ",
"  c None",
". c #282828",
"X c #C01820",
"o c #885828",
"O c #B86820",
"+ c #F87800",
"@ c #509010",
"# c #78B820",
"$ c #389068",
"% c #40D870",
"& c #F0A068",
"* c #F0D840",
"= c #E860B0",
"- c #F8F8F8",
/* pixels */
"                                                ",
"                                                ",
"                                                ",
"                                                ",
"                                                ",
"                                                ",
"              ------                            ",
"              ------                            ",
"              ------                            ",
"              ------                            ",
"              ------                            ",
"              ------                            ",
"              ------                            ",
"              ------                            ",
"              ------                            ",
"              ------                            ",
"              ------                            ",
"              ------                            ",
"              ------                            ",
"              ------                            ",
"              ------                            ",
"              ------                            ",
"              ------                            ",
"              ------                            ",
"              ----............                  ",
"              ----............                  ",
"              ----............                  ",
"            ......@@@@@@@@@@@@......            ",
"            ......@@@@@@@@@@@@......            ",
"            ......@@@@@@@@@@@@......            ",
"   ...   ...@@@@@@###############@@@...   ...   ",
"   ...   ...@@@@@@###############@@@...   ...   ",
"   ...   ...@@@@@@###############@@@...   ...   ",
"...&&&......@@@#########@@@@@@@@@@@@......&&&...",
"...&&&......@@@#########@@@@@@@@@@@@......&&&...",
"...&&&......@@@#########@@@@@@@@@@@@......&&&...",
"...&&&......@@@###@@@@@@......@@@@@@@@@...&&&...",
"...&&&......@@@###@@@@@@......@@@@@@@@@...&&&...",
"...&&&......@@@###@@@@@@......@@@@@@@@@...&&&...",
"...OOO...+++...@@@...@@@@@@@@@@@@...+++...OOO...",
"...OOO...+++...@@@...@@@@@@@@@@@@...+++...OOO...",
"...OOO...+++...@@@...@@@@@@@@@@@@...+++...OOO...",
"...OOOOOO...+++...@@@#########---@@@......OOO...",
"...OOOOOO...+++...@@@#########---@@@......OOO...",
"...OOOOOO...+++...@@@#########---@@@......OOO...",
"...OOOOOO......+++...@@@@@@######@@@...OOOOOO...",
"...OOOOOO......+++...@@@@@@######@@@...OOOOOO...",
"...OOOOOO......+++...@@@@@@######@@@...OOOOOO...",
"   ......===............@@@######@@@...===...   ",
"   ......===............@@@######@@@...===...   ",
"   ......===............@@@######@@@...===...   ",
"      ...=========......@@@@@@###...===...      ",
"      ...=========......@@@@@@###...===...      ",
"      ...=========......@@@@@@###...===...      ",
"         ...=========...@@@@@@###......         ",
"         ...=========...@@@@@@###......         ",
"         ...=========...@@@@@@###......         ",
"            ......======...@@@###...            ",
"            ......======...@@@###...            ",
"            ......======...@@@###...            ",
"   ...oooooo...$$$...............$$$...ooo...   ",
"   ...oooooo...$$$...............$$$...ooo...   ",
"   ...oooooo...$$$...............$$$...ooo...   ",
"   ...oooooo...$$$$$$$$$$$$$$$$$$$$$...oooooo...",
"   ...oooooo...$$$$$$$$$$$$$$$$$$$$$...oooooo...",
"   ...oooooo...$$$$$$$$$$$$$$$$$$$$$...oooooo...",
"      ...ooo...$$$%%%%%%%%%%%%%%%$$$......ooo...",
"      ...ooo...$$$%%%%%%%%%%%%%%%$$$......ooo...",
"      ...ooo...$$$%%%%%%%%%%%%%%%$$$......ooo...",
"      ......***$$$%%%%%%%%%%%%%%%$$$$$$......   ",
"      ......***$$$%%%%%%%%%%%%%%%$$$$$$......   ",
"      ......***$$$%%%%%%%%%%%%%%%$$$$$$......   ",
"      ...$$$***$$$$$$%%%%%%%%%$$$$$$***...      ",
"      ...$$$***$$$$$$%%%%%%%%%$$$$$$***...      ",
"      ...$$$***$$$$$$%%%%%%%%%$$$$$$***...      ",
"      ...$$$$$$***$$$$$$$$$$$$$$$***$$$...      ",
"      ...$$$$$$***$$$$$$$$$$$$$$$***$$$...      ",
"      ...$$$$$$***$$$$$$$$$$$$$$$***$$$...      ",
"         ...$$$$$$***$$$$$$$$$***$$$......      ",
"         ...$$$$$$***$$$$$$$$$***$$$......      ",
"         ...$$$$$$***$$$$$$$$$***$$$......      ",
"            ...$$$$$$*********$$$...OOO...      ",
"            ...$$$$$$*********$$$...OOO...      ",
"            ...$$$$$$*********$$$...OOO...      ",
"               ......$$$$$$$$$...OOO&&&......   ",
"               ......$$$$$$$$$...OOO&&&......   ",
"               ......$$$$$$$$$...OOO&&&......   ",
"                     .........OOO......XXX...   ",
"                     .........OOO......XXX...   ",
"                     .........OOO......XXX...   ",
"                           ......XXXXXXXXX...   ",
"                           ......XXXXXXXXX...   ",
"                           ......XXXXXXXXX...   ",
"                           ...XXX............   ",
"                           ...XXX............   ",
"                           ...XXX............   ",
"                           ...XXX............   ",
"                           ...XXX............   ",
"                           ...XXX............   ",
"                           ..................   ",
"                           ..................   ",
"                           ..................   ",
"                              ............      ",
"                              ............      ",
"                              ............      ",
"                                                ",
"                                                ",
"                                                "
};
