/* XPM */
static char *_b1cd371289f4744dea855374181cc1d9k6fvszsYZzxSOGx[] = {
/* columns rows colors chars-per-pixel */
"66 84 18 1 ",
"  c None",
". c #282828",
"X c gray22",
"o c #C01820",
"O c #885828",
"+ c #B86820",
"@ c #F87800",
"# c #509010",
"$ c #78B820",
"% c #389068",
"& c #40D870",
"* c #E09050",
"= c #F0A068",
"- c #F0D840",
"; c #F8F848",
": c #E860B0",
"> c #6888B8",
", c #F8F8F8",
/* pixels */
"                                                                  ",
"                                                                  ",
"                                                                  ",
"                                    ............                  ",
"                                    ............                  ",
"                                    ............                  ",
"                                 ...######$$$###......            ",
"                                 ...######$$$###......            ",
"                                 ...######$$$###......            ",
"                              ...######$$$$$$$$$$$$###...         ",
"                              ...######$$$$$$$$$$$$###...         ",
"                              ...######$$$$$$$$$$$$###...         ",
"                     ...   ......@@@######$$$###@@@...###......   ",
"                     ...   ......@@@######$$$###@@@...###......   ",
"                     ...   ......@@@######$$$###@@@...###......   ",
"                  ...===...:::......@@@@@@@@@@@@......###...===...",
"                  ...===...:::......@@@@@@@@@@@@......###...===...",
"                  ...===...:::......@@@@@@@@@@@@......###...===...",
"                  ...===...:::::::::............::::::......===...",
"                  ...===...:::::::::............::::::......===...",
"                  ...===...:::::::::............::::::......===...",
"                  ...+++===...::::::::::::::::::::::::...===+++...",
"                  ...+++===...::::::::::::::::::::::::...===+++...",
"                  ...+++===...::::::::::::::::::::::::...===+++...",
"                  ...+++...:::........................:::...+++...",
"                  ...+++...:::........................:::...+++...",
"                  ...+++...:::........................:::...+++...",
"                  ......+++...+++,,,,,,++++++,,,,,,+++...+++...   ",
"                  ......+++...+++,,,,,,++++++,,,,,,+++...+++...   ",
"                  ......+++...+++,,,,,,++++++,,,,,,+++...+++...   ",
"                  ...***...++++++,,,...======...,,,++++++...      ",
"                  ...***...++++++,,,...======...,,,++++++...      ",
"                  ...***...++++++,,,...======...,,,++++++...      ",
"                  ......OOO...+++===...======...===+++...         ",
"                  ......OOO...+++===...======...===+++...         ",
"                  ......OOO...+++===...======...===+++...         ",
";;;               ...OOOOOO......+++============+++...&&&...      ",
";;;               ...OOOOOO......+++============+++...&&&...      ",
";;;               ...OOOOOO......+++============+++...&&&...      ",
"                     ...OOO...%%%......++++++.........%%%...      ",
"                     ...OOO...%%%......++++++.........%%%...      ",
"                     ...OOO...%%%......++++++.........%%%...      ",
";;;                     ......%%%&&&%%%......OOOOOOOOO......      ",
";;;                     ......%%%&&&%%%......OOOOOOOOO......      ",
";;;                     ......%%%&&&%%%......OOOOOOOOO......      ",
";;;                        ...%%%%%%...******...OOOOOO...         ",
";;;                        ...%%%%%%...******...OOOOOO...         ",
";;;                        ...%%%%%%...******...OOOOOO...         ",
";;;;;;                  ...XXXXXXXXX...******.........---...      ",
";;;;;;                  ...XXXXXXXXX...******.........---...      ",
";;;;;;                  ...XXXXXXXXX...******.........---...      ",
";;;;;;                  XXX>>>>>>>>>XXX......%%%%%%------...      ",
";;;;;;                  XXX>>>>>>>>>XXX......%%%%%%------...      ",
";;;;;;                  XXX>>>>>>>>>XXX......%%%%%%------...      ",
";;;;;;                  ...XXX,,,>>>>>>XXX---------%%%%%%...      ",
";;;;;;                  ...XXX,,,>>>>>>XXX---------%%%%%%...      ",
";;;;;;                  ...XXX,,,>>>>>>XXX---------%%%%%%...      ",
"   ;;;;;;               ...,,,,,,,,,>>>XXX%%%%%%%%%.........      ",
"   ;;;;;;               ...,,,,,,,,,>>>XXX%%%%%%%%%.........      ",
"   ;;;;;;               ...,,,,,,,,,>>>XXX%%%%%%%%%.........      ",
"   ;;;;;;               ,,,,,,,,,XXX>>>XXX.........+++ooo...      ",
"   ;;;;;;               ,,,,,,,,,XXX>>>XXX.........+++ooo...      ",
"   ;;;;;;               ,,,,,,,,,XXX>>>XXX.........+++ooo...      ",
"   ;;;;;;            ,,,,,,,,,      XXX      ...oooooo@@@...      ",
"   ;;;;;;            ,,,,,,,,,      XXX      ...oooooo@@@...      ",
"   ;;;;;;            ,,,,,,,,,      XXX      ...oooooo@@@...      ",
"      ;;;;;;      ,,,,,,,,,                     .........         ",
"      ;;;;;;      ,,,,,,,,,                     .........         ",
"      ;;;;;;      ,,,,,,,,,                     .........         ",
"      ;;;;;;;;;,,,,,,,,,                                          ",
"      ;;;;;;;;;,,,,,,,,,                                          ",
"      ;;;;;;;;;,,,,,,,,,                                          ",
"      ;;;;;;,,,,,,,,,                                             ",
"      ;;;;;;,,,,,,,,,                                             ",
"      ;;;;;;,,,,,,,,,                                             ",
"         ;;;;;;,,,                                                ",
"         ;;;;;;,,,                                                ",
"         ;;;;;;,,,                                                ",
"                                                                  ",
"                                                                  ",
"                                                                  ",
"                                                                  ",
"                                                                  ",
"                                                                  "
};
