/* XPM */
static char *_369880aa8e34509bdc953f4fc280598tDcsHhOHk8kYSaU6[] = {
/* columns rows colors chars-per-pixel */
"48 94 14 1 ",
"  c None",
". c #282828",
"X c #C01820",
"o c #885828",
"O c #B86820",
"+ c #F87800",
"@ c #509010",
"# c #78B820",
"$ c #389068",
"% c #40D870",
"& c #F0A068",
"* c #F0D840",
"= c #E860B0",
"- c #F8F8F8",
/* pixels */
"                                                ",
"                                                ",
"                                                ",
"                                                ",
"                         ---                    ",
"                         ---                    ",
"                         ---                    ",
"                      ------                    ",
"                      ------                    ",
"                      ------                    ",
"                      ------                    ",
"                      ------                    ",
"                      ------                    ",
"                   ---------                    ",
"                   ---------                    ",
"                   ---------                    ",
"                   ------                       ",
"                   ------                       ",
"                   ------                       ",
"                  ............                  ",
"                  ............                  ",
"                  ............                  ",
"            ......@@@@@@@@@@@@......            ",
"            ......@@@@@@@@@@@@......            ",
"            ......@@@@@@@@@@@@......            ",
"   ...   ...@@@@@@###############@@@...   ...   ",
"   ...   ...@@@@@@###############@@@...   ...   ",
"   ...   ...@@@@@@###############@@@...   ...   ",
"...&&&......@@@#########@@@@@@@@@@@@......&&&...",
"...&&&......@@@#########@@@@@@@@@@@@......&&&...",
"...&&&......@@@#########@@@@@@@@@@@@......&&&...",
"...&&&......@@@###@@@@@@......@@@@@@@@@...&&&...",
"...&&&......@@@###@@@@@@......@@@@@@@@@...&&&...",
"...&&&......@@@###@@@@@@......@@@@@@@@@...&&&...",
"...OOO...+++...@@@...@@@@@@@@@@@@...+++...OOO...",
"...OOO...+++...@@@...@@@@@@@@@@@@...+++...OOO...",
"...OOO...+++...@@@...@@@@@@@@@@@@...+++...OOO...",
"...OOOOOO...+++...@@@#########---@@@......OOO...",
"...OOOOOO...+++...@@@#########---@@@......OOO...",
"...OOOOOO...+++...@@@#########---@@@......OOO...",
"...OOOOOO......+++...@@@@@@######@@@...OOOOOO...",
"...OOOOOO......+++...@@@@@@######@@@...OOOOOO...",
"...OOOOOO......+++...@@@@@@######@@@...OOOOOO...",
"   ......===............@@@######@@@...===...   ",
"   ......===............@@@######@@@...===...   ",
"   ......===............@@@######@@@...===...   ",
"   ......=========......@@@@@@###...===...      ",
"   ......=========......@@@@@@###...===...      ",
"   ......=========......@@@@@@###...===...      ",
"...ooo......=========...@@@@@@###......         ",
"...ooo......=========...@@@@@@###......         ",
"...ooo......=========...@@@@@@###......         ",
"...oooooo.........======...@@@###.........      ",
"...oooooo.........======...@@@###.........      ",
"...oooooo.........======...@@@###.........      ",
"   ...oooooo...$$$...............$$$...ooo...   ",
"   ...oooooo...$$$...............$$$...ooo...   ",
"   ...oooooo...$$$...............$$$...ooo...   ",
"   ...ooo...$$$$$$$$$$$$$$$$$$%%%$$$...oooooo...",
"   ...ooo...$$$$$$$$$$$$$$$$$$%%%$$$...oooooo...",
"   ...ooo...$$$$$$$$$$$$$$$$$$%%%$$$...oooooo...",
"      ......$$$$$$%%%%%%%%%%%%%%%%%%$$$...ooo...",
"      ......$$$$$$%%%%%%%%%%%%%%%%%%$$$...ooo...",
"      ......$$$$$$%%%%%%%%%%%%%%%%%%$$$...ooo...",
"         ...$$$$$$%%%%%%%%%%%%%%%%%%$$$......   ",
"         ...$$$$$$%%%%%%%%%%%%%%%%%%$$$......   ",
"         ...$$$$$$%%%%%%%%%%%%%%%%%%$$$......   ",
"      ...$$$***$$$$$$%%%%%%%%%%%%$$$***...      ",
"      ...$$$***$$$$$$%%%%%%%%%%%%$$$***...      ",
"      ...$$$***$$$$$$%%%%%%%%%%%%$$$***...      ",
"      ...$$$$$$***$$$$$$$$$$$$******$$$...      ",
"      ...$$$$$$***$$$$$$$$$$$$******$$$...      ",
"      ...$$$$$$***$$$$$$$$$$$$******$$$...      ",
"         ...$$$$$$************$$$$$$$$$...      ",
"         ...$$$$$$************$$$$$$$$$...      ",
"         ...$$$$$$************$$$$$$$$$...      ",
"         ......$$$$$$$$$$$$$$$$$$............   ",
"         ......$$$$$$$$$$$$$$$$$$............   ",
"         ......$$$$$$$$$$$$$$$$$$............   ",
"            .....................XXXXXXXXX...   ",
"            .....................XXXXXXXXX...   ",
"            .....................XXXXXXXXX...   ",
"                           ...XXX............   ",
"                           ...XXX............   ",
"                           ...XXX............   ",
"                           ..................   ",
"                           ..................   ",
"                           ..................   ",
"                              ............      ",
"                              ............      ",
"                              ............      ",
"                                                ",
"                                                ",
"                                                "
};
