/* XPM */
static char *result[] = {
/* columns rows colors chars-per-pixel */
"48 103 15 1 ",
"  c #282828",
". c gray22",
"X c #C01820",
"o c #885828",
"O c #B86820",
"+ c #F87800",
"@ c #509010",
"# c #78B820",
"$ c #389068",
"% c #E09050",
"& c #F0A068",
"* c #E860B0",
"= c #6888B8",
"- c #F8F8F8",
"; c None",
/* pixels */
";;;;;;;;;;;;;;;;;;;;;         ;;;;;;;;;;;;;;;;;;",
";;;;;;;;;;;;;;;;;;;;;         ;;;;;;;;;;;;;;;;;;",
";;;;;;;;;;;;;;;;;;;;;         ;;;;;;;;;;;;;;;;;;",
";;;;;;;;;;;;;;;      @@@@@@@@@   ;;;;;;;;;;;;;;;",
";;;;;;;;;;;;;;;      @@@@@@@@@   ;;;;;;;;;;;;;;;",
";;;;;;;;;;;;;;;      @@@@@@@@@   ;;;;;;;;;;;;;;;",
";;;;;;;;;;;;   @@@@@@@@@###@@@@@@   ;;;;;;;;;;;;",
";;;;;;;;;;;;   @@@@@@@@@###@@@@@@   ;;;;;;;;;;;;",
";;;;;;;;;;;;   @@@@@@@@@###@@@@@@   ;;;;;;;;;;;;",
";;;;;;;;;      @@@@@@######@@@      ;;;;;;;;;;;;",
";;;;;;;;;      @@@@@@######@@@      ;;;;;;;;;;;;",
";;;;;;;;;      @@@@@@######@@@      ;;;;;;;;;;;;",
";;;;;;;;;   +++@@@############@@@+++   ;;;;;;;;;",
";;;;;;;;;   +++@@@############@@@+++   ;;;;;;;;;",
";;;;;;;;;   +++@@@############@@@+++   ;;;;;;;;;",
";;;;;;      ++++++@@@@@@@@@@@@++++++   ;;;;;;;;;",
";;;;;;      ++++++@@@@@@@@@@@@++++++   ;;;;;;;;;",
";;;;;;      ++++++@@@@@@@@@@@@++++++   ;;;;;;;;;",
";;;      ***      ++++++++++++               ;;;",
";;;      ***      ++++++++++++               ;;;",
";;;      ***      ++++++++++++               ;;;",
"   &&&   *********            *********   &&&   ",
"   &&&   *********            *********   &&&   ",
"   &&&   *********            *********   &&&   ",
"   OOO   ***   ******************   ***   OOO   ",
"   OOO   ***   ******************   ***   OOO   ",
"   OOO   ***   ******************   ***   OOO   ",
"   OOO&&&   OOO                  OOO   &&&OOO   ",
"   OOO&&&   OOO                  OOO   &&&OOO   ",
"   OOO&&&   OOO                  OOO   &&&OOO   ",
"      OOOOOOOOO------OOOOOO------OOOOOOOOO   ;;;",
"      OOOOOOOOO------OOOOOO------OOOOOOOOO   ;;;",
"      OOOOOOOOO------OOOOOO------OOOOOOOOO   ;;;",
"%%%      OOOOOO---   &&&&&&   ---OOOOOO   ;;;;;;",
"%%%      OOOOOO---   &&&&&&   ---OOOOOO   ;;;;;;",
"%%%      OOOOOO---   &&&&&&   ---OOOOOO   ;;;;;;",
"%%%            &&&   &&&&&&   &&&         ;;;;;;",
"%%%            &&&   &&&&&&   &&&         ;;;;;;",
"%%%            &&&   &&&&&&   &&&         ;;;;;;",
"            $$$   XXX++++++XXX   oooooo   ;;;;;;",
"            $$$   XXX++++++XXX   oooooo   ;;;;;;",
"            $$$   XXX++++++XXX   oooooo   ;;;;;;",
";;;;;;;;;;;;   $$$               oooooo   ;;;;;;",
";;;;;;;;;;;;   $$$               oooooo   ;;;;;;",
";;;;;;;;;;;;   $$$               oooooo   ;;;;;;",
";;;;;;;;;;;;;;;   $$$$$$   OOO   oooooo   ;;;;;;",
";;;;;;;;;;;;;;;   $$$$$$   OOO   oooooo   ;;;;;;",
";;;;;;;;;;;;;;;   $$$$$$   OOO   oooooo   ;;;;;;",
";;;;;;;;;;;;;;;;;;         OOO            ;;;;;;",
";;;;;;;;;;;;;;;;;;         OOO            ;;;;;;",
";;;;;;;;;;;;;;;;;;         OOO            ;;;;;;",
";;;;;;;;;;;;;;;;;;;;;;;;   XXX   %%%%%%   ;;;;;;",
";;;;;;;;;;;;;;;;;;;;;;;;   XXX   %%%%%%   ;;;;;;",
";;;;;;;;;;;;;;;;;;;;;;;;   XXX   %%%%%%   ;;;;;;",
";;;;;;;;;;;;;;;;;;;;;;;;;;;      %%%%%%   ;;;;;;",
";;;;;;;;;;;;;;;;;;;;;;;;;;;      %%%%%%   ;;;;;;",
";;;;;;;;;;;;;;;;;;;;;;;;;;;      %%%%%%   ;;;;;;",
";;;;;;;;;;;;;;;;;;;;;;;;;;;;;;;;;......;;;;;;;;;",
";;;;;;;;;;;;;;;;;;;;;;;;;;;;;;;;;......;;;;;;;;;",
";;;;;;;;;;;;;;;;;;;;;;;;;;;;;;;;;......;;;;;;;;;",
";;;;;;;;;;;;;;;;;;;;;;;;;;;;;;...======...;;;;;;",
";;;;;;;;;;;;;;;;;;;;;;;;;;;;;;...======...;;;;;;",
";;;;;;;;;;;;;;;;;;;;;;;;;;;;;;...======...;;;;;;",
";;;;;;;;;;;;;;;;;;;;;;;;;;;...============...;;;",
";;;;;;;;;;;;;;;;;;;;;;;;;;;...============...;;;",
";;;;;;;;;;;;;;;;;;;;;;;;;;;...============...;;;",
";;;;;;;;;;;;;;;;;;;;;;;;;;;;;;...------...;;;;;;",
";;;;;;;;;;;;;;;;;;;;;;;;;;;;;;...------...;;;;;;",
";;;;;;;;;;;;;;;;;;;;;;;;;;;;;;...------...;;;;;;",
";;;;;;;;;;;;;;;;;;;;;;;;;;;;;;;;;------;;;;;;;;;",
";;;;;;;;;;;;;;;;;;;;;;;;;;;;;;;;;------;;;;;;;;;",
";;;;;;;;;;;;;;;;;;;;;;;;;;;;;;;;;------;;;;;;;;;",
";;;;;;;;;;;;;;;;;;;;;;;;;;;;;;;;;------;;;;;;;;;",
";;;;;;;;;;;;;;;;;;;;;;;;;;;;;;;;;------;;;;;;;;;",
";;;;;;;;;;;;;;;;;;;;;;;;;;;;;;;;;------;;;;;;;;;",
";;;;;;;;;;;;;;;;;;;;;;;;;;;;;;;;;------;;;;;;;;;",
";;;;;;;;;;;;;;;;;;;;;;;;;;;;;;;;;------;;;;;;;;;",
";;;;;;;;;;;;;;;;;;;;;;;;;;;;;;;;;------;;;;;;;;;",
";;;;;;;;;;;;;;;;;;;;;;;;;;;;;;;;;------;;;;;;;;;",
";;;;;;;;;;;;;;;;;;;;;;;;;;;;;;;;;------;;;;;;;;;",
";;;;;;;;;;;;;;;;;;;;;;;;;;;;;;;;;------;;;;;;;;;",
";;;;;;;;;;;;;;;;;;;;;;;;;;;;;;;;;------;;;;;;;;;",
";;;;;;;;;;;;;;;;;;;;;;;;;;;;;;;;;------;;;;;;;;;",
";;;;;;;;;;;;;;;;;;;;;;;;;;;;;;;;;------;;;;;;;;;",
";;;;;;;;;;;;;;;;;;;;;;;;;;;;;;;;;------;;;;;;;;;",
";;;;;;;;;;;;;;;;;;;;;;;;;;;;;;;;;------;;;;;;;;;",
";;;;;;;;;;;;;;;;;;;;;;;;;;;;;;;;;------;;;;;;;;;",
";;;;;;;;;;;;;;;;;;;;;;;;;;;;;;;;;------;;;;;;;;;",
";;;;;;;;;;;;;;;;;;;;;;;;;;;;;;;;;------;;;;;;;;;",
";;;;;;;;;;;;;;;;;;;;;;;;;;;;;;;;;------;;;;;;;;;",
";;;;;;;;;;;;;;;;;;;;;;;;;;;;;;;;;------;;;;;;;;;",
";;;;;;;;;;;;;;;;;;;;;;;;;;;;;;;;;------;;;;;;;;;",
";;;;;;;;;;;;;;;;;;;;;;;;;;;;;;;;;------;;;;;;;;;",
";;;;;;;;;;;;;;;;;;;;;;;;;;;;;;;;;;;;;;;;;;;;;;;;",
";;;;;;;;;;;;;;;;;;;;;;;;;;;;;;;;;;;;;;;;;;;;;;;;",
";;;;;;;;;;;;;;;;;;;;;;;;;;;;;;;;;;;;;;;;;;;;;;;;",
";;;;;;;;;;;;;;;;;;;;;;;;;;;;;;;;;;;;;;;;;;;;;;;;",
";;;;;;;;;;;;;;;;;;;;;;;;;;;;;;;;;;;;;;;;;;;;;;;;",
";;;;;;;;;;;;;;;;;;;;;;;;;;;;;;;;;;;;;;;;;;;;;;;;",
";;;;;;;;;;;;;;;;;;;;;;;;;;;;;;;;;;;;;;;;;;;;;;;;",
";;;;;;;;;;;;;;;;;;;;;;;;;;;;;;;;;;;;;;;;;;;;;;;;",
";;;;;;;;;;;;;;;;;;;;;;;;;;;;;;;;;;;;;;;;;;;;;;;;",
";;;;;;;;;;;;;;;;;;;;;;;;;;;;;;;;;;;;;;;;;;;;;;;;"
};
