/* XPM */
static char *_614351412994dda8765a9149749d0e7FiJKqtqGTzXDzOzE[] = {
/* columns rows colors chars-per-pixel */
"87 72 18 1 ",
"  c None",
". c #282828",
"X c gray22",
"o c #C01820",
"O c #885828",
"+ c #B86820",
"@ c #F87800",
"# c #509010",
"$ c #78B820",
"% c #389068",
"& c #40D870",
"* c #E09050",
"= c #F0A068",
"- c #F0D840",
"; c #F8F848",
": c #E860B0",
"> c #6888B8",
", c #F8F8F8",
/* pixels */
"                                                                                       ",
"                                                                                       ",
"                                                                                       ",
"                                                         ............                  ",
"                           ;;;                           ............                  ",
"                           ;;;                           ............                  ",
"                           ;;;                     ......############......            ",
"                     ;;;                           ......############......            ",
"                     ;;;                           ......############......            ",
"                     ;;;                  ...   ...######$$$$$$$$$$$$$$$###...   ...   ",
"               ;;;;;;                     ...   ...######$$$$$$$$$$$$$$$###...   ...   ",
"               ;;;;;;                     ...   ...######$$$$$$$$$$$$$$$###...   ...   ",
"               ;;;;;;                  ...===......###$$$$$$$$$############......===...",
"            ;;;;;;                     ...===......###$$$$$$$$$############......===...",
"            ;;;;;;                     ...===......###$$$$$$$$$############......===...",
"            ;;;;;;                     ...===......###$$$######......#########...===...",
"         ;;;;;;                        ...===......###$$$######......#########...===...",
"         ;;;;;;                        ...===......###$$$######......#########...===...",
"         ;;;;;;                        ...+++...@@@...###...############...@@@...+++...",
"         ;;;;;;                        ...+++...@@@...###...############...@@@...+++...",
"         ;;;;;;                        ...+++...@@@...###...############...@@@...+++...",
"         ;;;;;;                        ...++++++...@@@...###$$$$$$$$$,,,###......+++...",
"      ;;;;;;                           ...++++++...@@@...###$$$$$$$$$,,,###......+++...",
"      ;;;;;;                           ...++++++...@@@...###$$$$$$$$$,,,###......+++...",
"      ;;;;;;                           ...++++++......@@@...######$$$$$$###...++++++...",
"      ;;;;;;                           ...++++++......@@@...######$$$$$$###...++++++...",
"      ;;;;;;                           ...++++++......@@@...######$$$$$$###...++++++...",
"      ;;;;;;                              ......:::............###$$$$$$###...:::...   ",
"   ;;;;;;,,,,,,,,,,,,         XXXXXX      ......:::............###$$$$$$###...:::...   ",
"   ;;;;;;,,,,,,,,,,,,         XXXXXX      ......:::............###$$$$$$###...:::...   ",
"   ;;;;;;,,,,,,,,,,,,         XXXXXX         ...:::::::::......######$$$...:::...      ",
"            ,,,,,,,,,,,,,,,,,,>>>>>>XXX      ...:::::::::......######$$$...:::...      ",
"            ,,,,,,,,,,,,,,,,,,>>>>>>XXX      ...:::::::::......######$$$...:::...      ",
"            ,,,,,,,,,,,,,,,,,,>>>>>>XXX............:::::::::...######$$$.........      ",
"                  ,,,,,,,,,,,,,,,>>>XXX............:::::::::...######$$$.........      ",
"                  ,,,,,,,,,,,,,,,>>>XXX............:::::::::...######$$$.........      ",
"                  ,,,,,,,,,,,,,,,>>>XXX***...OOOOOO......::::::...###$$$......OOO...   ",
"                        XXX,,,>>>>>>XXX***...OOOOOO......::::::...###$$$......OOO...   ",
"                        XXX,,,>>>>>>XXX***...OOOOOO......::::::...###$$$......OOO...   ",
"                        XXX,,,>>>>>>XXXOOOOOOOOO...%%%%%%...............%%%...OOOOOO...",
"                        XXX>>>>>>XXX   OOOOOOOOO...%%%%%%...............%%%...OOOOOO...",
"                        XXX>>>>>>XXX   OOOOOOOOO...%%%%%%...............%%%...OOOOOO...",
"                        XXX>>>>>>XXX   ......OOO...%%%%%%%%%%%%%%%%%%&&&%%%%%%...OOO...",
"                           XXXXXX      ......OOO...%%%%%%%%%%%%%%%%%%&&&%%%%%%...OOO...",
"                           XXXXXX      ......OOO...%%%%%%%%%%%%%%%%%%&&&%%%%%%...OOO...",
"                           XXXXXX            ...%%%%%%%%%&&&&&&&&&&&&&&&&&&%%%......   ",
"                                             ...%%%%%%%%%&&&&&&&&&&&&&&&&&&%%%......   ",
"                                             ...%%%%%%%%%&&&&&&&&&&&&&&&&&&%%%......   ",
"                                             ...---%%%%%%%%%&&&&&&&&&&&&%%%---...      ",
"                                             ...---%%%%%%%%%&&&&&&&&&&&&%%%---...      ",
"                                             ...---%%%%%%%%%&&&&&&&&&&&&%%%---...      ",
"                                             ...%%%------%%%%%%&&&&&&------%%%...      ",
"                                             ...%%%------%%%%%%&&&&&&------%%%...      ",
"                                             ...%%%------%%%%%%&&&&&&------%%%...      ",
"                                                ...%%%%%%------------%%%%%%.........   ",
"                                                ...%%%%%%------------%%%%%%.........   ",
"                                                ...%%%%%%------------%%%%%%.........   ",
"                                                .........%%%%%%%%%%%%......+++ooo...   ",
"                                                .........%%%%%%%%%%%%......+++ooo...   ",
"                                                .........%%%%%%%%%%%%......+++ooo...   ",
"                                                   .....................ooooooooo...   ",
"                                                   .....................ooooooooo...   ",
"                                                   .....................ooooooooo...   ",
"                                                                        .........      ",
"                                                                        .........      ",
"                                                                        .........      ",
"                                                                                       ",
"                                                                                       ",
"                                                                                       ",
"                                                                                       ",
"                                                                                       ",
"                                                                                       "
};
