/* XPM */
static char *c55b92a73de44f89cd56bb9c6d4df216OX2APoloYoJYURoh[] = {
/* columns rows colors chars-per-pixel */
"87 72 17 1 ",
"  c None",
". c #282828",
"X c gray22",
"o c #C01820",
"O c #885828",
"+ c #B86820",
"@ c #F87800",
"# c #509010",
"$ c #78B820",
"% c #389068",
"& c #40D870",
"* c #E09050",
"= c #F0A068",
"- c #F0D840",
"; c #E860B0",
": c #6888B8",
"> c #F8F8F8",
/* pixels */
"                                                                                       ",
"                                                                                       ",
"                                                                                       ",
"                     ............                                                      ",
"                     ............                                                      ",
"                     ............                                                      ",
"      ...      ......$$$$$$$$$$$$......                                                ",
"      ...      ......$$$$$$$$$$$$......                                                ",
"      ...      ......$$$$$$$$$$$$......                                                ",
"   ...===......$$$$$$$$$$$$$$$#########...                                             ",
"   ...===......$$$$$$$$$$$$$$$#########...                                             ",
"   ...===......$$$$$$$$$$$$$$$#########...                                             ",
"   ...===......$$$$$$$$$############...===...                                          ",
"   ...===......$$$$$$$$$############...===...                                          ",
"   ...===......$$$$$$$$$############...===...                                          ",
"   ...+++...###...$$$############......===...                                          ",
"   ...+++...###...$$$############......===...                                          ",
"   ...+++...###...$$$############......===...                                          ",
"   ...+++...#########............@@@...+++...                                          ",
"   ...+++...#########............@@@...+++...                                          ",
"   ...+++...#########............@@@...+++...                                          ",
"      ......$$$############...@@@...===+++...                                          ",
"      ......$$$############...@@@...===+++...                                          ",
"      ......$$$############...@@@...===+++...                                          ",
"      ...$$$$$$$$$$$$######.........++++++...                                          ",
"      ...$$$$$$$$$$$$######.........++++++...                                          ",
"      ...$$$$$$$$$$$$######.........++++++...                                          ",
"      ...$$$$$$$$$######...;;;;;;...+++...                                             ",
"      ...$$$$$$$$$######...;;;;;;...+++...                                             ",
"      ...$$$$$$$$$######...;;;;;;...+++...                                             ",
"      ...$$$$$$######...;;;;;;;;;;;;...         XXX                                    ",
"      ...$$$$$$######...;;;;;;;;;;;;...         XXX                                    ",
"      ...$$$$$$######...;;;;;;;;;;;;...         XXX                                    ",
"         ...$$$######...;;;;;;;;;.........   XXX:::XXX                                 ",
"         ...$$$######...;;;;;;;;;.........   XXX:::XXX                                 ",
"         ...$$$######...;;;;;;;;;.........   XXX:::XXX                                 ",
"         ...$$$###...;;;;;;......OOOOOO***XXX::::::>>>>>>>>>>>>>>>>>>>>>>>>>>>         ",
"         ...$$$###...;;;;;;......OOOOOO***XXX::::::>>>>>>>>>>>>>>>>>>>>>>>>>>>         ",
"         ...$$$###...;;;;;;......OOOOOO***XXX::::::>>>>>>>>>>>>>>>>>>>>>>>>>>>         ",
"      ...OOO...............%%%%%%......***XXX::::::>>>>>>>>>>>>>>>>>>>>>>>>>>>         ",
"      ...OOO...............%%%%%%......***XXX::::::>>>>>>>>>>>>>>>>>>>>>>>>>>>         ",
"      ...OOO...............%%%%%%......***XXX::::::>>>>>>>>>>>>>>>>>>>>>>>>>>>         ",
"      ...OOO...%%%%%%%%%%%%%%%...OOOOOO......XXX:::XXX                                 ",
"      ...OOO...%%%%%%%%%%%%%%%...OOOOOO......XXX:::XXX                                 ",
"      ...OOO...%%%%%%%%%%%%%%%...OOOOOO......XXX:::XXX                                 ",
"         ...%%%%%%&&&&&&&&&%%%...OOOOOOOOOOOO...XXX                                    ",
"         ...%%%%%%&&&&&&&&&%%%...OOOOOOOOOOOO...XXX                                    ",
"         ...%%%%%%&&&&&&&&&%%%...OOOOOOOOOOOO...XXX                                    ",
"         ...%%%&&&&&&&&&%%%%%%%%%...OOOOOOOOO...                                       ",
"         ...%%%&&&&&&&&&%%%%%%%%%...OOOOOOOOO...                                       ",
"         ...%%%&&&&&&&&&%%%%%%%%%...OOOOOOOOO...                                       ",
"      ...%%%---%%%&&&&&&%%%%%%%%%%%%.........                                          ",
"      ...%%%---%%%&&&&&&%%%%%%%%%%%%.........                                          ",
"      ...%%%---%%%&&&&&&%%%%%%%%%%%%.........                                          ",
"      ...%%%------%%%%%%%%%%%%------%%%%%%...                                          ",
"      ...%%%------%%%%%%%%%%%%------%%%%%%...                                          ",
"      ...%%%------%%%%%%%%%%%%------%%%%%%...                                          ",
"         ...%%%%%%------------%%%%%%%%%...                                             ",
"         ...%%%%%%------------%%%%%%%%%...                                             ",
"         ...%%%%%%------------%%%%%%%%%...                                             ",
"            ......%%%%%%%%%%%%............                                             ",
"            ......%%%%%%%%%%%%............                                             ",
"            ......%%%%%%%%%%%%............                                             ",
"                  ............ooooooooo...                                             ",
"                  ............ooooooooo...                                             ",
"                  ............ooooooooo...                                             ",
"                              .........                                                ",
"                              .........                                                ",
"                              .........                                                ",
"                                                                                       ",
"                                                                                       ",
"                                                                                       "
};
