/* XPM */
static char *a46b2aca3afd4cee833d233682c69692BsNQTbwcYT2MyiAs[] = {
/* columns rows colors chars-per-pixel */
"84 72 17 1 ",
"  c None",
". c #282828",
"X c gray22",
"o c #C01820",
"O c #885828",
"+ c #B86820",
"@ c #F87800",
"# c #509010",
"$ c #78B820",
"% c #389068",
"& c #40D870",
"* c #E09050",
"= c #F0A068",
"- c #F0D840",
"; c #E860B0",
": c #6888B8",
"> c #F8F8F8",
/* pixels */
"                                                                                    ",
"                                                                                    ",
"                                                                                    ",
"                                                   ..................               ",
"                                                   ..................               ",
"                                                   ..................               ",
"                                          ...   ...######$$$$$$###.........         ",
"                                          ...   ...######$$$$$$###.........         ",
"                                          ...   ...######$$$$$$###.........         ",
"                                       ...===...@@@@@@$$$$$$$$$$$$###$$$###...      ",
"                                       ...===...@@@@@@$$$$$$$$$$$$###$$$###...      ",
"                                       ...===...@@@@@@$$$$$$$$$$$$###$$$###...      ",
"                                       ......;;;...@@@@@@@@@#########.........      ",
"                                       ......;;;...@@@@@@@@@#########.........      ",
"                                       ......;;;...@@@@@@@@@#########.........      ",
"                                       ...;;;;;;;;;......@@@@@@@@@######...===...   ",
"                                       ...;;;;;;;;;......@@@@@@@@@######...===...   ",
"                                       ...;;;;;;;;;......@@@@@@@@@######...===...   ",
"                                       ......;;;;;;;;;;;;.........@@@......===...   ",
"                                       ......;;;;;;;;;;;;.........@@@......===...   ",
"                                       ......;;;;;;;;;;;;.........@@@......===...   ",
"                                       ...+++......;;;;;;;;;;;;;;;......===+++...   ",
"                                       ...+++......;;;;;;;;;;;;;;;......===+++...   ",
"                                       ...+++......;;;;;;;;;;;;;;;......===+++...   ",
"                                       ...+++>>>+++............;;;;;;...++++++...   ",
"                                       ...+++>>>+++............;;;;;;...++++++...   ",
"                                       ...+++>>>+++............;;;;;;...++++++...   ",
"                                       ...+++...===+++>>>>>>+++......++++++...      ",
"                                       ...+++...===+++>>>>>>+++......++++++...      ",
"                                       ...+++...===+++>>>>>>+++......++++++...      ",
"                                    ...OOO......======...>>>======++++++...         ",
"                                    ...OOO......======...>>>======++++++...         ",
"                                    ...OOO......======...>>>======++++++...         ",
"                                    XXXOOO...++++++===...>>>+++++++++......         ",
"                                    XXXOOO...++++++===...>>>+++++++++......         ",
"                                    XXXOOO...++++++===...>>>+++++++++......         ",
"                                 XXX:::XXXOOO......+++++++++.........&&&...         ",
"                                 XXX:::XXXOOO......+++++++++.........&&&...         ",
"                                 XXX:::XXXOOO......+++++++++.........&&&...         ",
"         >>>>>>>>>>>>>>>>>>>>>>>>>>>::::::XXX******.........OOOOOOOOO...&&&...      ",
"         >>>>>>>>>>>>>>>>>>>>>>>>>>>::::::XXX******.........OOOOOOOOO...&&&...      ",
"         >>>>>>>>>>>>>>>>>>>>>>>>>>>::::::XXX******.........OOOOOOOOO...&&&...      ",
"         >>>>>>>>>>>>>>>>>>>>>>>>>>>::::::XXX******...OOOOOOOOOOOOOOO...%%%...      ",
"         >>>>>>>>>>>>>>>>>>>>>>>>>>>::::::XXX******...OOOOOOOOOOOOOOO...%%%...      ",
"         >>>>>>>>>>>>>>>>>>>>>>>>>>>::::::XXX******...OOOOOOOOOOOOOOO...%%%...      ",
"                                 XXX:::XXX.........OOOOOOOOOOOO......%%%...         ",
"                                 XXX:::XXX.........OOOOOOOOOOOO......%%%...         ",
"                                 XXX:::XXX.........OOOOOOOOOOOO......%%%...         ",
"                                    XXX   ......%%%............%%%%%%%%%...         ",
"                                    XXX   ......%%%............%%%%%%%%%...         ",
"                                    XXX   ......%%%............%%%%%%%%%...         ",
"                                          ...%%%---%%%%%%%%%%%%&&&&&&%%%---...      ",
"                                          ...%%%---%%%%%%%%%%%%&&&&&&%%%---...      ",
"                                          ...%%%---%%%%%%%%%%%%&&&&&&%%%---...      ",
"                                          ......%%%------...%%%%%%------%%%...      ",
"                                          ......%%%------...%%%%%%------%%%...      ",
"                                          ......%%%------...%%%%%%------%%%...      ",
"                                             ...%%%%%%------------%%%%%%......      ",
"                                             ...%%%%%%------------%%%%%%......      ",
"                                             ...%%%%%%------------%%%%%%......      ",
"                                                ......%%%%%%%%%%%%......ooo...      ",
"                                                ......%%%%%%%%%%%%......ooo...      ",
"                                                ......%%%%%%%%%%%%......ooo...      ",
"                                                      ............+++oooooo...      ",
"                                                      ............+++oooooo...      ",
"                                                      ............+++oooooo...      ",
"                                                            ...oooooo@@@...         ",
"                                                            ...oooooo@@@...         ",
"                                                            ...oooooo@@@...         ",
"                                                               .........            ",
"                                                               .........            ",
"                                                               .........            "
};
