/* XPM */
static char *_4be8ecfdbe348a3c0fa60789707fad5UYrF3qX9xa53ZdQw[] = {
/* columns rows colors chars-per-pixel */
"48 96 17 1 ",
"  c None",
". c #282828",
"X c gray22",
"o c #C01820",
"O c #885828",
"+ c #B86820",
"@ c #F87800",
"# c #509010",
"$ c #78B820",
"% c #389068",
"& c #40D870",
"* c #E09050",
"= c #F0A068",
"- c #F0D840",
"; c #E860B0",
": c #6888B8",
"> c #F8F8F8",
/* pixels */
"                     .........                  ",
"                     .........                  ",
"                     .........                  ",
"               ......#########...               ",
"               ......#########...               ",
"               ......#########...               ",
"            ...#########$$$######...            ",
"            ...#########$$$######...            ",
"            ...#########$$$######...            ",
"         ......######$$$$$$###......            ",
"         ......######$$$$$$###......            ",
"         ......######$$$$$$###......            ",
"         ...@@@###$$$$$$$$$$$$###@@@...         ",
"         ...@@@###$$$$$$$$$$$$###@@@...         ",
"         ...@@@###$$$$$$$$$$$$###@@@...         ",
"      ......@@@@@@############@@@@@@...         ",
"      ......@@@@@@############@@@@@@...         ",
"      ......@@@@@@############@@@@@@...         ",
"   ......;;;......@@@@@@@@@@@@...............   ",
"   ......;;;......@@@@@@@@@@@@...............   ",
"   ......;;;......@@@@@@@@@@@@...............   ",
"...===...;;;;;;;;;............;;;;;;;;;...===...",
"...===...;;;;;;;;;............;;;;;;;;;...===...",
"...===...;;;;;;;;;............;;;;;;;;;...===...",
"...+++...;;;...;;;;;;;;;;;;;;;;;;...;;;...+++...",
"...+++...;;;...;;;;;;;;;;;;;;;;;;...;;;...+++...",
"...+++...;;;...;;;;;;;;;;;;;;;;;;...;;;...+++...",
"...+++===...+++..................+++...===+++...",
"...+++===...+++..................+++...===+++...",
"...+++===...+++..................+++...===+++...",
"......+++++++++>>>>>>++++++>>>>>>+++++++++...   ",
"......+++++++++>>>>>>++++++>>>>>>+++++++++...   ",
"......+++++++++>>>>>>++++++>>>>>>+++++++++...   ",
"...OOO...++++++>>>...======...>>>++++++...      ",
"...OOO...++++++>>>...======...>>>++++++...      ",
"...OOO...++++++>>>...======...>>>++++++...      ",
"***...OOO......===...======...===.........      ",
"***...OOO......===...======...===.........      ",
"***...OOO......===...======...===.........      ",
"***.........%%%...ooo@@@@@@ooo...OOOOOO...      ",
"***.........%%%...ooo@@@@@@ooo...OOOOOO...      ",
"***.........%%%...ooo@@@@@@ooo...OOOOOO...      ",
"...      ...%%%%%%...............OOOOOO...      ",
"...      ...%%%%%%...............OOOOOO...      ",
"...      ...%%%%%%...............OOOOOO...      ",
"      ...---%%%%%%%%%%%%&&&%%%............      ",
"      ...---%%%%%%%%%%%%&&&%%%............      ",
"      ...---%%%%%%%%%%%%&&&%%%............      ",
"   ......%%%------...------......******...      ",
"   ......%%%------...------......******...      ",
"   ......%%%------...------......******...      ",
"   ...ooo...%%%%%%------------...******...      ",
"   ...ooo...%%%%%%------------...******...      ",
"   ...ooo...%%%%%%------------...******...      ",
"   ...@@@ooo......%%%%%%%%%%%%%%XXXXXXXXX+...   ",
"   ...@@@ooo......%%%%%%%%%%%%%%XXXXXXXXX+...   ",
"   ...@@@ooo......%%%%%%%%%%%%%%XXXXXXXXX+...   ",
"      .........   ...........XXX:::::::::XXX.   ",
"      .........   ...........XXX:::::::::XXX.   ",
"      .........   ...........XXX:::::::::XXX.   ",
"                             XXX:::>>>::::::XXX ",
"                             XXX:::>>>::::::XXX ",
"                             XXX:::>>>::::::XXX ",
"                                >>>>>>>>>XXX    ",
"                                >>>>>>>>>XXX    ",
"                                >>>>>>>>>XXX    ",
"                                >>>>>>XXX       ",
"                                >>>>>>XXX       ",
"                                >>>>>>XXX       ",
"                             >>>>>>>>>          ",
"                             >>>>>>>>>          ",
"                             >>>>>>>>>          ",
"                             >>>>>>             ",
"                             >>>>>>             ",
"                             >>>>>>             ",
"                             >>>>>>             ",
"                             >>>>>>             ",
"                             >>>>>>             ",
"                          >>>>>>>>>             ",
"                          >>>>>>>>>             ",
"                          >>>>>>>>>             ",
"                          >>>>>>                ",
"                          >>>>>>                ",
"                          >>>>>>                ",
"                          >>>>>>                ",
"                          >>>>>>                ",
"                          >>>>>>                ",
"                          >>>                   ",
"                          >>>                   ",
"                          >>>                   ",
"                                                ",
"                                                ",
"                                                ",
"                                                ",
"                                                ",
"                                                "
};
