/* XPM */
static char *result[] = {
/* columns rows colors chars-per-pixel */
"78 72 18 1 ",
"  c #282828",
". c gray22",
"X c #C01820",
"o c #885828",
"O c #B86820",
"+ c #F87800",
"@ c #509010",
"# c #78B820",
"$ c #389068",
"% c #40D870",
"& c #E09050",
"* c #F0A068",
"= c #F0D840",
"- c #F8F848",
"; c #E860B0",
": c #6888B8",
"> c #F8F8F8",
", c None",
/* pixels */
",,,,,,,,,,,,,,,,,,,,,,,,,,,,,,---,,,---------------,,,,,,,,,,,,,,,,,,,,,,,,,,,",
",,,,,,,,,,,,,,,,,,,,,,,,,,,,,,---,,,---------------,,,,,,,,,,,,,,,,,,,,,,,,,,,",
",,,,,,,,,,,,,,,,,,,,,,,,,,,,,,---,,,---------------,,,,,,,,,,,,,,,,,,,,,,,,,,,",
",,,,,,,,,,,,,,,,,,,,,,,,,,,,,,,,,,,,,,,,,,------------------,,,,,,,,,,,,,,,,,,",
",,,,,,,,,,,,,,,,,,,,,,,,,,,,,,,,,,,,,,,,,,------------------,,,,,,,,,,,,,,,,,,",
",,,,,,,,,,,,,,,,,,,,,,,,,,,,,,,,,,,,,,,,,,------------------,,,,,,,,,,,,,,,,,,",
",,,,,,,,,,,,,,,,,,,,,            ,,,,,,,,,,,,,,,,,,------------------,,,,,,,,,",
",,,,,,,,,,,,,,,,,,,,,            ,,,,,,,,,,,,,,,,,,------------------,,,,,,,,,",
",,,,,,,,,,,,,,,,,,,,,            ,,,,,,,,,,,,,,,,,,------------------,,,,,,,,,",
",,,,,,,,,,,,,,,      ######@@@@@@   ,,,,,,,,,,,,,,,,,,,,,,,,------------,,,,,,",
",,,,,,,,,,,,,,,      ######@@@@@@   ,,,,,,,,,,,,,,,,,,,,,,,,------------,,,,,,",
",,,,,,,,,,,,,,,      ######@@@@@@   ,,,,,,,,,,,,,,,,,,,,,,,,------------,,,,,,",
",,,,,,,,,,,,   @@@#########@@@++++++      ,,,,,,,,,,,,,,,,,,,,,--->>>---,,,,,,",
",,,,,,,,,,,,   @@@#########@@@++++++      ,,,,,,,,,,,,,,,,,,,,,--->>>---,,,,,,",
",,,,,,,,,,,,   @@@#########@@@++++++      ,,,,,,,,,,,,,,,,,,,,,--->>>---,,,,,,",
",,,,,,         #########@@@@@@++++++   ;;;   ,,,,,,,,,,,,,,,,,,>>>>>>>>>,,,,,,",
",,,,,,         #########@@@@@@++++++   ;;;   ,,,,,,,,,,,,,,,,,,>>>>>>>>>,,,,,,",
",,,,,,         #########@@@@@@++++++   ;;;   ,,,,,,,,,,,,,,,,,,>>>>>>>>>,,,,,,",
",,,   ###@@@   @@@@@@@@@+++++++++   ;;;;;;;;;   ,,,,,,,,,,,,>>>>>>>>>,,,,,,,,,",
",,,   ###@@@   @@@@@@@@@+++++++++   ;;;;;;;;;   ,,,,,,,,,,,,>>>>>>>>>,,,,,,,,,",
",,,   ###@@@   @@@@@@@@@+++++++++   ;;;;;;;;;   ,,,,,,,,,,,,>>>>>>>>>,,,,,,,,,",
"   ######@@@@@@@@@   ++++++      ;;;;;;;;;;;;   ,,,,,,,,,>>>>>>>>>,,,,,,,,,,,,",
"   ######@@@@@@@@@   ++++++      ;;;;;;;;;;;;   ,,,,,,,,,>>>>>>>>>,,,,,,,,,,,,",
"   ######@@@@@@@@@   ++++++      ;;;;;;;;;;;;   ,,,,,,,,,>>>>>>>>>,,,,,,,,,,,,",
"   ###@@@@@@@@@   ***      ;;;;;;;;;;;;      ...,,,,,,>>>>>>>>>,,,,,,,,,,,,,,,",
"   ###@@@@@@@@@   ***      ;;;;;;;;;;;;      ...,,,,,,>>>>>>>>>,,,,,,,,,,,,,,,",
"   ###@@@@@@@@@   ***      ;;;;;;;;;;;;      ...,,,,,,>>>>>>>>>,,,,,,,,,,,,,,,",
"   ###@@@@@@      ******   ;;;         OOO   :::...>>>>>>>>>,,,,,,,,,,,,,,,,,,",
"   ###@@@@@@      ******   ;;;         OOO   :::...>>>>>>>>>,,,,,,,,,,,,,,,,,,",
"   ###@@@@@@      ******   ;;;         OOO   :::...>>>>>>>>>,,,,,,,,,,,,,,,,,,",
",,,   @@@         OOO***   ;;;   >>>   ***   :::>>>>>>>>>,,,,,,,,,,,,,,,,,,,,,",
",,,   @@@         OOO***   ;;;   >>>   ***   :::>>>>>>>>>,,,,,,,,,,,,,,,,,,,,,",
",,,   @@@         OOO***   ;;;   >>>   ***   :::>>>>>>>>>,,,,,,,,,,,,,,,,,,,,,",
",,,,,,   ,,,      OOOOOO   ;;;   >>>   ******   :::>>>...,,,,,,,,,,,,,,,,,,,,,",
",,,,,,   ,,,      OOOOOO   ;;;   >>>   ******   :::>>>...,,,,,,,,,,,,,,,,,,,,,",
",,,,,,   ,,,      OOOOOO   ;;;   >>>   ******   :::>>>...,,,,,,,,,,,,,,,,,,,,,",
",,,,,,,,,,,,   ;;;   OOOOOO   ***OOO***OOO   ...:::::::::...,,,,,,,,,,,,,,,,,,",
",,,,,,,,,,,,   ;;;   OOOOOO   ***OOO***OOO   ...:::::::::...,,,,,,,,,,,,,,,,,,",
",,,,,,,,,,,,   ;;;   OOOOOO   ***OOO***OOO   ...:::::::::...,,,,,,,,,,,,,,,,,,",
",,,,,,,,,,,,,,,         OOOOOOOOOOOO      &&&   .........,,,,,,,,,,,,,,,,,,,,,",
",,,,,,,,,,,,,,,         OOOOOOOOOOOO      &&&   .........,,,,,,,,,,,,,,,,,,,,,",
",,,,,,,,,,,,,,,         OOOOOOOOOOOO      &&&   .........,,,,,,,,,,,,,,,,,,,,,",
",,,,,,,,,,,,,,,,,,   $$$            ooo      ,,,,,,,,,,,,,,,,,,,,,,,,,,,,,,,,,",
",,,,,,,,,,,,,,,,,,   $$$            ooo      ,,,,,,,,,,,,,,,,,,,,,,,,,,,,,,,,,",
",,,,,,,,,,,,,,,,,,   $$$            ooo      ,,,,,,,,,,,,,,,,,,,,,,,,,,,,,,,,,",
",,,,,,,,,,,,,,,,,,   %%%$$$$$$   ooooooooo   ,,,,,,,,,,,,,,,,,,,,,,,,,,,,,,,,,",
",,,,,,,,,,,,,,,,,,   %%%$$$$$$   ooooooooo   ,,,,,,,,,,,,,,,,,,,,,,,,,,,,,,,,,",
",,,,,,,,,,,,,,,,,,   %%%$$$$$$   ooooooooo   ,,,,,,,,,,,,,,,,,,,,,,,,,,,,,,,,,",
",,,,,,,,,,,,,,,   $$$%%%%%%$$$   oooooo   ,,,,,,,,,,,,,,,,,,,,,,,,,,,,,,,,,,,,",
",,,,,,,,,,,,,,,   $$$%%%%%%$$$   oooooo   ,,,,,,,,,,,,,,,,,,,,,,,,,,,,,,,,,,,,",
",,,,,,,,,,,,,,,   $$$%%%%%%$$$   oooooo   ,,,,,,,,,,,,,,,,,,,,,,,,,,,,,,,,,,,,",
",,,,,,,,,,,,   $$$   ===%%%%%%$$$      $$$   ,,,,,,,,,,,,,,,,,,,,,,,,,,,,,,,,,",
",,,,,,,,,,,,   $$$   ===%%%%%%$$$      $$$   ,,,,,,,,,,,,,,,,,,,,,,,,,,,,,,,,,",
",,,,,,,,,,,,   $$$   ===%%%%%%$$$      $$$   ,,,,,,,,,,,,,,,,,,,,,,,,,,,,,,,,,",
",,,,,,,,,      $$$$$$$$$===$$$$$$$$$======   ,,,,,,,,,,,,,,,,,,,,,,,,,,,,,,,,,",
",,,,,,,,,      $$$$$$$$$===$$$$$$$$$======   ,,,,,,,,,,,,,,,,,,,,,,,,,,,,,,,,,",
",,,,,,,,,      $$$$$$$$$===$$$$$$$$$======   ,,,,,,,,,,,,,,,,,,,,,,,,,,,,,,,,,",
",,,,,,,,,   XXX   $$$$$$$$$=========$$$$$$   ,,,,,,,,,,,,,,,,,,,,,,,,,,,,,,,,,",
",,,,,,,,,   XXX   $$$$$$$$$=========$$$$$$   ,,,,,,,,,,,,,,,,,,,,,,,,,,,,,,,,,",
",,,,,,,,,   XXX   $$$$$$$$$=========$$$$$$   ,,,,,,,,,,,,,,,,,,,,,,,,,,,,,,,,,",
",,,,,,,,,,,,   XXX   $$$$$$$$$$$$$$$         ,,,,,,,,,,,,,,,,,,,,,,,,,,,,,,,,,",
",,,,,,,,,,,,   XXX   $$$$$$$$$$$$$$$         ,,,,,,,,,,,,,,,,,,,,,,,,,,,,,,,,,",
",,,,,,,,,,,,   XXX   $$$$$$$$$$$$$$$         ,,,,,,,,,,,,,,,,,,,,,,,,,,,,,,,,,",
",,,,,,,,,,,,,,,                     XXXXXX+++   ,,,,,,,,,,,,,,,,,,,,,,,,,,,,,,",
",,,,,,,,,,,,,,,                     XXXXXX+++   ,,,,,,,,,,,,,,,,,,,,,,,,,,,,,,",
",,,,,,,,,,,,,,,                     XXXXXX+++   ,,,,,,,,,,,,,,,,,,,,,,,,,,,,,,",
",,,,,,,,,,,,,,,,,,,,,,,,,,,,,,   XXXXXX++++++   ,,,,,,,,,,,,,,,,,,,,,,,,,,,,,,",
",,,,,,,,,,,,,,,,,,,,,,,,,,,,,,   XXXXXX++++++   ,,,,,,,,,,,,,,,,,,,,,,,,,,,,,,",
",,,,,,,,,,,,,,,,,,,,,,,,,,,,,,   XXXXXX++++++   ,,,,,,,,,,,,,,,,,,,,,,,,,,,,,,",
",,,,,,,,,,,,,,,,,,,,,,,,,,,,,,,,,            ,,,,,,,,,,,,,,,,,,,,,,,,,,,,,,,,,",
",,,,,,,,,,,,,,,,,,,,,,,,,,,,,,,,,            ,,,,,,,,,,,,,,,,,,,,,,,,,,,,,,,,,",
",,,,,,,,,,,,,,,,,,,,,,,,,,,,,,,,,            ,,,,,,,,,,,,,,,,,,,,,,,,,,,,,,,,,"
};
