/* XPM */
static char *_07648e3b71c4e77a533117db7f5ff46a6f692aGvhNMX9f7[] = {
/* columns rows colors chars-per-pixel */
"48 48 4 1 ",
"  c gray19",
". c #784848",
"X c #A87850",
"o c #D0A830",
/* pixels */
"                                                ",
"                                                ",
"                                                ",
"   ...XXXooooooXXXXXXooooooXXXXXXooooooXXX...   ",
"   ...XXXooooooXXXXXXooooooXXXXXXooooooXXX...   ",
"   ...XXXooooooXXXXXXooooooXXXXXXooooooXXX...   ",
"   XXXoooXXX......XXXooooooXXX......XXXoooXXX   ",
"   XXXoooXXX......XXXooooooXXX......XXXoooXXX   ",
"   XXXoooXXX......XXXooooooXXX......XXXoooXXX   ",
"   oooXXX......XXXoooXXXXXXoooXXX......XXXooo   ",
"   oooXXX......XXXoooXXXXXXoooXXX......XXXooo   ",
"   oooXXX......XXXoooXXXXXXoooXXX......XXXooo   ",
"   ooo.........XXXooo......oooXXX.........ooo   ",
"   ooo.........XXXooo......oooXXX.........ooo   ",
"   ooo.........XXXooo......oooXXX.........ooo   ",
"   XXX...XXXXXXoooXXX......XXXoooXXXXXX...XXX   ",
"   XXX...XXXXXXoooXXX......XXXoooXXXXXX...XXX   ",
"   XXX...XXXXXXoooXXX......XXXoooXXXXXX...XXX   ",
"   XXXXXXooooooXXX...XXXXXX...XXXooooooXXXXXX   ",
"   XXXXXXooooooXXX...XXXXXX...XXXooooooXXXXXX   ",
"   XXXXXXooooooXXX...XXXXXX...XXXooooooXXXXXX   ",
"   ooooooXXX......XXXooooooXXX......XXXoooooo   ",
"   ooooooXXX......XXXooooooXXX......XXXoooooo   ",
"   ooooooXXX......XXXooooooXXX......XXXoooooo   ",
"   ooooooXXX......XXXooooooXXX......XXXoooooo   ",
"   ooooooXXX......XXXooooooXXX......XXXoooooo   ",
"   ooooooXXX......XXXooooooXXX......XXXoooooo   ",
"   XXXXXXooooooXXX...XXXXXX...XXXooooooXXXXXX   ",
"   XXXXXXooooooXXX...XXXXXX...XXXooooooXXXXXX   ",
"   XXXXXXooooooXXX...XXXXXX...XXXooooooXXXXXX   ",
"   XXX...XXXXXXoooXXX......XXXoooXXXXXX...XXX   ",
"   XXX...XXXXXXoooXXX......XXXoooXXXXXX...XXX   ",
"   XXX...XXXXXXoooXXX......XXXoooXXXXXX...XXX   ",
"   ooo.........XXXooo......oooXXX.........ooo   ",
"   ooo.........XXXooo......oooXXX.........ooo   ",
"   ooo.........XXXooo......oooXXX.........ooo   ",
"   oooXXX......XXXoooXXXXXXoooXXX......XXXooo   ",
"   oooXXX......XXXoooXXXXXXoooXXX......XXXooo   ",
"   oooXXX......XXXoooXXXXXXoooXXX......XXXooo   ",
"   XXXoooXXX......XXXooooooXXX......XXXoooXXX   ",
"   XXXoooXXX......XXXooooooXXX......XXXoooXXX   ",
"   XXXoooXXX......XXXooooooXXX......XXXoooXXX   ",
"   ...XXXooooooXXXXXXooooooXXXXXXooooooXXX...   ",
"   ...XXXooooooXXXXXXooooooXXXXXXooooooXXX...   ",
"   ...XXXooooooXXXXXXooooooXXXXXXooooooXXX...   ",
"                                                ",
"                                                ",
"                                                "
};
