/* XPM */
static char *_1f6c90c01644ad484da706de4406963evE2YVqng9N9XY9r[] = {
/* columns rows colors chars-per-pixel */
"48 48 4 1 ",
"  c gray19",
". c #784848",
"X c #A87850",
"o c #D0A830",
/* pixels */
"                                                ",
"                                                ",
"                                                ",
"   XXXooooooXXXXXXXXXooooooXXXXXXXXXooooooXXX   ",
"   XXXooooooXXXXXXXXXooooooXXXXXXXXXooooooXXX   ",
"   XXXooooooXXXXXXXXXooooooXXXXXXXXXooooooXXX   ",
"   oooXXX......XXXoooXXXXXXoooXXX......XXXooo   ",
"   oooXXX......XXXoooXXXXXXoooXXX......XXXooo   ",
"   oooXXX......XXXoooXXXXXXoooXXX......XXXooo   ",
"   ooo......XXXoooXXX......XXXoooXXX......ooo   ",
"   ooo......XXXoooXXX......XXXoooXXX......ooo   ",
"   ooo......XXXoooXXX......XXXoooXXX......ooo   ",
"   XXX...XXXoooXXX...XXXXXX...XXXoooXXX...XXX   ",
"   XXX...XXXoooXXX...XXXXXX...XXXoooXXX...XXX   ",
"   XXX...XXXoooXXX...XXXXXX...XXXoooXXX...XXX   ",
"   XXXXXXoooXXX...XXXooooooXXX...XXXoooXXXXXX   ",
"   XXXXXXoooXXX...XXXooooooXXX...XXXoooXXXXXX   ",
"   XXXXXXoooXXX...XXXooooooXXX...XXXoooXXXXXX   ",
"   XXXoooXXX...XXXoooXXXXXXoooXXX...XXXoooXXX   ",
"   XXXoooXXX...XXXoooXXXXXXoooXXX...XXXoooXXX   ",
"   XXXoooXXX...XXXoooXXXXXXoooXXX...XXXoooXXX   ",
"   oooXXX...XXXoooXXX......XXXoooXXX...XXXooo   ",
"   oooXXX...XXXoooXXX......XXXoooXXX...XXXooo   ",
"   oooXXX...XXXoooXXX......XXXoooXXX...XXXooo   ",
"   oooXXX...XXXoooXXX......XXXoooXXX...XXXooo   ",
"   oooXXX...XXXoooXXX......XXXoooXXX...XXXooo   ",
"   oooXXX...XXXoooXXX......XXXoooXXX...XXXooo   ",
"   XXXoooXXX...XXXoooXXXXXXoooXXX...XXXoooXXX   ",
"   XXXoooXXX...XXXoooXXXXXXoooXXX...XXXoooXXX   ",
"   XXXoooXXX...XXXoooXXXXXXoooXXX...XXXoooXXX   ",
"   XXXXXXoooXXX...XXXooooooXXX...XXXoooXXXXXX   ",
"   XXXXXXoooXXX...XXXooooooXXX...XXXoooXXXXXX   ",
"   XXXXXXoooXXX...XXXooooooXXX...XXXoooXXXXXX   ",
"   XXX...XXXoooXXX...XXXXXX...XXXoooXXX...XXX   ",
"   XXX...XXXoooXXX...XXXXXX...XXXoooXXX...XXX   ",
"   XXX...XXXoooXXX...XXXXXX...XXXoooXXX...XXX   ",
"   ooo......XXXoooXXX......XXXoooXXX......ooo   ",
"   ooo......XXXoooXXX......XXXoooXXX......ooo   ",
"   ooo......XXXoooXXX......XXXoooXXX......ooo   ",
"   oooXXX......XXXoooXXXXXXoooXXX......XXXooo   ",
"   oooXXX......XXXoooXXXXXXoooXXX......XXXooo   ",
"   oooXXX......XXXoooXXXXXXoooXXX......XXXooo   ",
"   XXXooooooXXXXXXXXXooooooXXXXXXXXXooooooXXX   ",
"   XXXooooooXXXXXXXXXooooooXXXXXXXXXooooooXXX   ",
"   XXXooooooXXXXXXXXXooooooXXXXXXXXXooooooXXX   ",
"                                                ",
"                                                ",
"                                                "
};
