/* XPM */
static char *ea0ded7cfe5c4317a058bdd351d12120xf7qkbY0dd01mi5I[] = {
/* columns rows colors chars-per-pixel */
"48 48 4 1 ",
"  c gray19",
". c #784848",
"X c #A87850",
"o c #D0A830",
/* pixels */
"                                                ",
"                                                ",
"                                                ",
"   XXX......XXXooooooooooooooooooXXX......XXX   ",
"   XXX......XXXooooooooooooooooooXXX......XXX   ",
"   XXX......XXXooooooooooooooooooXXX......XXX   ",
"   ......XXXoooXXX...XXXXXX...XXXoooXXX......   ",
"   ......XXXoooXXX...XXXXXX...XXXoooXXX......   ",
"   ......XXXoooXXX...XXXXXX...XXXoooXXX......   ",
"   ...XXXoooXXX......oooooo......XXXoooXXX...   ",
"   ...XXXoooXXX......oooooo......XXXoooXXX...   ",
"   ...XXXoooXXX......oooooo......XXXoooXXX...   ",
"   XXXoooXXX......XXXooooooXXX......XXXoooXXX   ",
"   XXXoooXXX......XXXooooooXXX......XXXoooXXX   ",
"   XXXoooXXX......XXXooooooXXX......XXXoooXXX   ",
"   oooXXX......XXXoooXXXXXXoooXXX......XXXooo   ",
"   oooXXX......XXXoooXXXXXXoooXXX......XXXooo   ",
"   oooXXX......XXXoooXXXXXXoooXXX......XXXooo   ",
"   ooo......XXXoooXXX......XXXoooXXX......ooo   ",
"   ooo......XXXoooXXX......XXXoooXXX......ooo   ",
"   ooo......XXXoooXXX......XXXoooXXX......ooo   ",
"   oooXXXooooooXXX...XXXXXX...XXXooooooXXXooo   ",
"   oooXXXooooooXXX...XXXXXX...XXXooooooXXXooo   ",
"   oooXXXooooooXXX...XXXXXX...XXXooooooXXXooo   ",
"   oooXXXooooooXXX...XXXXXX...XXXooooooXXXooo   ",
"   oooXXXooooooXXX...XXXXXX...XXXooooooXXXooo   ",
"   oooXXXooooooXXX...XXXXXX...XXXooooooXXXooo   ",
"   ooo......XXXoooXXX......XXXoooXXX......ooo   ",
"   ooo......XXXoooXXX......XXXoooXXX......ooo   ",
"   ooo......XXXoooXXX......XXXoooXXX......ooo   ",
"   oooXXX......XXXoooXXXXXXoooXXX......XXXooo   ",
"   oooXXX......XXXoooXXXXXXoooXXX......XXXooo   ",
"   oooXXX......XXXoooXXXXXXoooXXX......XXXooo   ",
"   XXXoooXXX......XXXooooooXXX......XXXoooXXX   ",
"   XXXoooXXX......XXXooooooXXX......XXXoooXXX   ",
"   XXXoooXXX......XXXooooooXXX......XXXoooXXX   ",
"   ...XXXoooXXX......oooooo......XXXoooXXX...   ",
"   ...XXXoooXXX......oooooo......XXXoooXXX...   ",
"   ...XXXoooXXX......oooooo......XXXoooXXX...   ",
"   ......XXXoooXXX...XXXXXX...XXXoooXXX......   ",
"   ......XXXoooXXX...XXXXXX...XXXoooXXX......   ",
"   ......XXXoooXXX...XXXXXX...XXXoooXXX......   ",
"   XXX......XXXooooooooooooooooooXXX......XXX   ",
"   XXX......XXXooooooooooooooooooXXX......XXX   ",
"   XXX......XXXooooooooooooooooooXXX......XXX   ",
"                                                ",
"                                                ",
"                                                "
};
