/* XPM */
static char *_91160ecdedb41fa8f1ad2fd5e930b36qBOCST4sjSeeGaVp[] = {
/* columns rows colors chars-per-pixel */
"48 48 3 1 ",
"  c gray19",
". c #585858",
"X c #A0A0A0",
/* pixels */
"                                                ",
"                                                ",
"                                                ",
"   ...XXXXXX.........XXXXXX.........XXXXXX...   ",
"   ...XXXXXX.........XXXXXX.........XXXXXX...   ",
"   ...XXXXXX.........XXXXXX.........XXXXXX...   ",
"   XXX...      ...XXX......XXX...      ...XXX   ",
"   XXX...      ...XXX......XXX...      ...XXX   ",
"   XXX...      ...XXX......XXX...      ...XXX   ",
"   XXX      ...XXX...      ...XXX...      XXX   ",
"   XXX      ...XXX...      ...XXX...      XXX   ",
"   XXX      ...XXX...      ...XXX...      XXX   ",
"   ...   ...XXX...   ......   ...XXX...   ...   ",
"   ...   ...XXX...   ......   ...XXX...   ...   ",
"   ...   ...XXX...   ......   ...XXX...   ...   ",
"   ......XXX...   ...XXXXXX...   ...XXX......   ",
"   ......XXX...   ...XXXXXX...   ...XXX......   ",
"   ......XXX...   ...XXXXXX...   ...XXX......   ",
"   ...XXX...   ...XXX......XXX...   ...XXX...   ",
"   ...XXX...   ...XXX......XXX...   ...XXX...   ",
"   ...XXX...   ...XXX......XXX...   ...XXX...   ",
"   XXX...   ...XXX...      ...XXX...   ...XXX   ",
"   XXX...   ...XXX...      ...XXX...   ...XXX   ",
"   XXX...   ...XXX...      ...XXX...   ...XXX   ",
"   XXX...   ...XXX...      ...XXX...   ...XXX   ",
"   XXX...   ...XXX...      ...XXX...   ...XXX   ",
"   XXX...   ...XXX...      ...XXX...   ...XXX   ",
"   ...XXX...   ...XXX......XXX...   ...XXX...   ",
"   ...XXX...   ...XXX......XXX...   ...XXX...   ",
"   ...XXX...   ...XXX......XXX...   ...XXX...   ",
"   ......XXX...   ...XXXXXX...   ...XXX......   ",
"   ......XXX...   ...XXXXXX...   ...XXX......   ",
"   ......XXX...   ...XXXXXX...   ...XXX......   ",
"   ...   ...XXX...   ......   ...XXX...   ...   ",
"   ...   ...XXX...   ......   ...XXX...   ...   ",
"   ...   ...XXX...   ......   ...XXX...   ...   ",
"   XXX      ...XXX...      ...XXX...      XXX   ",
"   XXX      ...XXX...      ...XXX...      XXX   ",
"   XXX      ...XXX...      ...XXX...      XXX   ",
"   XXX...      ...XXX......XXX...      ...XXX   ",
"   XXX...      ...XXX......XXX...      ...XXX   ",
"   XXX...      ...XXX......XXX...      ...XXX   ",
"   ...XXXXXX.........XXXXXX.........XXXXXX...   ",
"   ...XXXXXX.........XXXXXX.........XXXXXX...   ",
"   ...XXXXXX.........XXXXXX.........XXXXXX...   ",
"                                                ",
"                                                ",
"                                                "
};
