/* XPM */
static char *walk_S31671294256[] = {
/* columns rows colors chars-per-pixel */
"48 72 15 1 ",
"  c None",
". c #282828",
"X c #C01820",
"o c #885828",
"O c #B86820",
"+ c #F87800",
"@ c #509010",
"# c #78B820",
"$ c #389068",
"% c #40D870",
"& c #E09050",
"* c #F0A068",
"= c #F0D840",
"- c #E860B0",
"; c #F8F8F8",
/* pixels */
"                                                ",
"                                                ",
"                                                ",
"                  ............                  ",
"                  ............                  ",
"                  ............                  ",
"               ...@@@@@@@##@@@......            ",
"               ...@@@@@@@##@@@......            ",
"               ...@@@@@@@##@@@......            ",
"            ...@@@@@@############@@@..          ",
"            ...@@@@@@############@@@..          ",
"            ...@@@@@@############@@@..          ",
"            ...@@@@@@############@@@..          ",
"   ..     .....+++@@@@@@@##@@@+++...@@.......   ",
"   ..     .....+++@@@@@@@##@@@+++...@@.......   ",
"...**.....--......++++++++++++......@@.....**...",
"...**.....--......++++++++++++......@@.....**...",
"...**.....--......++++++++++++......@@.....**...",
"...**.....--------............------.......**...",
"...**.....--------............------.......**...",
"...**.....--------............------.......**...",
"...OO*****..------------------------..*****OO...",
"...OO*****..------------------------..*****OO...",
"...OO*****..------------------------..*****OO...",
"...OO.....--........................--.....OO...",
"...OO.....--........................--.....OO...",
"...OO.....--........................--.....OO...",
"   ..OOOOO..OOO;;;;;;OOOOOO;;;;;;OOO..OOOOO..   ",
"   ..OOOOO..OOO;;;;;;OOOOOO;;;;;;OOO..OOOOO..   ",
"   ..OOOOO..OOO;;;;;;OOOOOO;;;;;;OOO..OOOOO..   ",
"     .....OOOOO;;;...******...;;;OOOOO.....     ",
"     .....OOOOO;;;...******...;;;OOOOO.....     ",
"     .....OOOOO;;;...******...;;;OOOOO.....     ",
"   .........OOO***...******...***OOO.......     ",
"   .........OOO***...******...***OOO.......     ",
"   .........OOO***...******...***OOO.......     ",
"   .........OOO***...******...***OOO.......     ",
"...ooooooooo...OOO************OOO...ooooooo..   ",
"...ooooooooo...OOO************OOO...ooooooo..   ",
".....ooooo..$$$......OOOOOO......$$$..ooooooo...",
".....ooooo..$$$......OOOOOO......$$$..ooooooo...",
".....ooooo..$$$......OOOOOO......$$$..ooooooo...",
"...&&.......$$$%%%$$$......%%%$$$.....ooooooo...",
"...&&.......$$$%%%$$$......%%%$$$.....ooooooo...",
"...&&.......$$$%%%$$$......%%%$$$.....ooooooo...",
"   .......$$$$$$$$%%%%%%%%%$$$...&&&&&.....oo...",
"   .......$$$$$$$$%%%%%%%%%$$$...&&&&&.....oo...",
"   .......$$$$$$$$%%%%%%%%%$$$...&&&&&.....oo...",
"     .....$$===$$$$$$%%%%%%$$$...&&&&&.......   ",
"     .....$$===$$$$$$%%%%%%$$$...&&&&&.......   ",
"     .....$$===$$$$$$%%%%%%$$$...&&&&&.......   ",
"     .......$$$$$$=========...===..........     ",
"     .......$$$$$$=========...===..........     ",
"     .......$$$$$$=========...===..........     ",
"     .....OO......$$$=========$$$$$$.......     ",
"     .....OO......$$$=========$$$$$$.......     ",
"     .....OO......$$$=========$$$$$$.......     ",
"     .....XXOOOOOO...$$$$$$$$$......XX.....     ",
"     .....XXOOOOOO...$$$$$$$$$......XX.....     ",
"     .....XXOOOOOO...$$$$$$$$$......XX.....     ",
"     .....XXOOOOOO...$$$$$$$$$......XX.....     ",
"     .....++XXXXXX....................          ",
"     .....++XXXXXX....................          ",
"          ........                              ",
"          ........                              ",
"          ........                              ",
"                                                ",
"                                                ",
"                                                ",
"                                                ",
"                                                ",
"                                                "
};
