/* XPM */
static char *walk_S61671294256[] = {
/* columns rows colors chars-per-pixel */
"48 78 15 1 ",
"  c None",
". c #282828",
"X c #C01820",
"o c #885828",
"O c #B86820",
"+ c #F87800",
"@ c #509010",
"# c #78B820",
"$ c #389068",
"% c #40D870",
"& c #E09050",
"* c #F0A068",
"= c #F0D840",
"- c #E860B0",
"; c #F8F8F8",
/* pixels */
"                                                ",
"                                                ",
"                                                ",
"                  ............                  ",
"                  ............                  ",
"                  ............                  ",
"               ...@@@@@@###@@@......            ",
"               ...@@@@@@###@@@......            ",
"               ...@@@@@@###@@@......            ",
"            ...@@@@@@############@@@...         ",
"            ...@@@@@@############@@@...         ",
"            ...@@@@@@############@@@...         ",
"   ...   ......+++@@@@@@###@@@+++...@@@......   ",
"   ...   ......+++@@@@@@###@@@+++...@@@......   ",
"   ...   ......+++@@@@@@###@@@+++...@@@......   ",
"...***...---......++++++++++++......@@@...***...",
"...***...---......++++++++++++......@@@...***...",
"...***...---......++++++++++++......@@@...***...",
"...***...---------............------......***...",
"...***...---------............------......***...",
"...***...---------............------......***...",
"...OOO***...------------------------...***OOO...",
"...OOO***...------------------------...***OOO...",
"...OOO***...------------------------...***OOO...",
"...OOO...---........................---...OOO...",
"...OOO...---........................---...OOO...",
"...OOO...---........................---...OOO...",
"   ...OOO...OOO;;;;;;OOOOOO;;;;;;OOO...OOO...   ",
"   ...OOO...OOO;;;;;;OOOOOO;;;;;;OOO...OOO...   ",
"   ...OOO...OOO;;;;;;OOOOOO;;;;;;OOO...OOO...   ",
"      ...OOOOOO;;;...******...;;;OOOOOO...      ",
"      ...OOOOOO;;;...******...;;;OOOOOO...      ",
"      ...OOOOOO;;;...******...;;;OOOOOO...      ",
"      ......OOO***...******...***OOO......      ",
"      ......OOO***...******...***OOO......      ",
"      ......OOO***...******...***OOO......      ",
"   ...oooooo...OOO************OOO......ooo...   ",
"   ...oooooo...OOO************OOO......ooo...   ",
"   ...oooooo...OOO************OOO......ooo...   ",
"   ...ooooooooo......OOOOOO.........oooooo...   ",
"   ...ooooooooo......OOOOOO.........oooooo...   ",
"   ...ooooooooo......OOOOOO.........oooooo...   ",
"   ...oooooo......$$$......$$$%%%$$$...ooo...   ",
"   ...oooooo......$$$......$$$%%%$$$...ooo...   ",
"   ...oooooo......$$$......$$$%%%$$$...ooo...   ",
"   ...ooo...&&&&&&...$$$%%%%%%$$$$$$$$$...      ",
"   ...ooo...&&&&&&...$$$%%%%%%$$$$$$$$$...      ",
"   ...ooo...&&&&&&...$$$%%%%%%$$$$$$$$$...      ",
"      ......&&&&&&...$$$%%%$$$$$$======...      ",
"      ......&&&&&&...$$$%%%$$$$$$======...      ",
"      ......&&&&&&...$$$%%%$$$$$$======...      ",
"      ...$$$.........======...===$$$$$$...      ",
"      ...$$$.........======...===$$$$$$...      ",
"      ...$$$.........======...===$$$$$$...      ",
"      ......$$$$$$=========...$$$............   ",
"      ......$$$$$$=========...$$$............   ",
"      ......$$$$$$=========...$$$............   ",
"         .........$$$$$$$$$$$$...XXXXXX+++...   ",
"         .........$$$$$$$$$$$$...XXXXXX+++...   ",
"         .........$$$$$$$$$$$$...XXXXXX+++...   ",
"                  ............XXX............   ",
"                  ............XXX............   ",
"                  ............XXX............   ",
"                              .........         ",
"                              .........         ",
"                              .........         ",
"                                                ",
"                                                ",
"                                                ",
"                                                ",
"                                                ",
"                                                ",
"                                                ",
"                                                ",
"                                                ",
"                                                ",
"                                                ",
"                                                "
};
