/* XPM */
static char *f8de80e08d024bc2bfde6c6e8a85e8e6aTjs7yUOgrqZtCOI[] = {
/* columns rows colors chars-per-pixel */
"24 48 7 1 ",
"  c #282828",
". c #287838",
"X c #605030",
"o c #887048",
"O c #408848",
"+ c #489848",
"@ c #A08860",
/* pixels */
"++++++++++++++++++++++++",
"++++++++++++++++++++++++",
"++++++++++++++++++++++++",
"++++++++++++++++++++++++",
"++++++++++++++++++++++++",
"++++++++++++++++++++++++",
"++++++++++++++++++++++++",
"++++++++++++++++++++++++",
"++++++++++++++++++++++++",
"                        ",
"                        ",
"                        ",
"XXXooo@@@@@@@@@@@@XXX@@@",
"XXXooo@@@@@@@@@@@@XXX@@@",
"XXXooo@@@@@@@@@@@@XXX@@@",
"XXXooooooXXXXXXooooooooo",
"XXXooooooXXXXXXooooooooo",
"XXXooooooXXXXXXooooooooo",
"XXXXXXXXXXXXXXXXXXXXXXXX",
"XXXXXXXXXXXXXXXXXXXXXXXX",
"XXXXXXXXXXXXXXXXXXXXXXXX",
"                        ",
"                        ",
"                        ",
"++++++++++++++++++++++++",
"++++++++++++++++++++++++",
"++++++++++++++++++++++++",
"++++++++++++++++++++++++",
"++++++++++++++++++++++++",
"++++++++++++++++++++++++",
"+++OOO++++++OOO++++++OOO",
"+++OOO++++++OOO++++++OOO",
"+++OOO++++++OOO++++++OOO",
"........................",
"........................",
"........................",
"........................",
"........................",
"........................",
"........................",
"........................",
"........................",
"...OOO.........OOO......",
"...OOO.........OOO......",
"...OOO.........OOO......",
"++++++++++++++++++++++++",
"++++++++++++++++++++++++",
"++++++++++++++++++++++++"
};
