/* XPM */
static char *f0b09e682b5e430ae67fe1397188d598FiLc3fplctXY2Q3h[] = {
/* columns rows colors chars-per-pixel */
"24 48 6 1 ",
"  c #282828",
". c #287838",
"X c #605030",
"o c #887048",
"O c #489848",
"+ c #A08860",
/* pixels */
"OOOOOO            OOOOOO",
"OOOOOO            OOOOOO",
"OOOOOO            OOOOOO",
"OOO   ++++++++++++   OOO",
"OOO   ++++++++++++   OOO",
"OOO   ++++++++++++   OOO",
"   ++++++oooooo++++++   ",
"   ++++++oooooo++++++   ",
"   ++++++oooooo++++++   ",
"   +++ooo++++++ooo+++   ",
"   +++ooo++++++ooo+++   ",
"   +++ooo++++++ooo+++   ",
"   +++ooo++++++ooo+++   ",
"   +++ooo++++++ooo+++   ",
"   +++ooo++++++ooo+++   ",
"   ++++++oooooo++++++   ",
"   ++++++oooooo++++++   ",
"   ++++++oooooo++++++   ",
"   ooo++++++++++++ooo   ",
"   ooo++++++++++++ooo   ",
"   ooo++++++++++++ooo   ",
"      oooooooooooo      ",
"      oooooooooooo      ",
"      oooooooooooo      ",
"   XXX            XXX   ",
"   XXX            XXX   ",
"   XXX            XXX   ",
"   XXXooooooXXXXXXXXX   ",
"   XXXooooooXXXXXXXXX   ",
"   XXXooooooXXXXXXXXX   ",
"   XXXooooooXXXXXXXXX   ",
"   XXXooooooXXXXXXXXX   ",
"   XXXooooooXXXXXXXXX   ",
"   XXXooooooXXXoooXXX   ",
"   XXXooooooXXXoooXXX   ",
"   XXXooooooXXXoooXXX   ",
"   XXXXXXoooXXXoooXXX   ",
"   XXXXXXoooXXXoooXXX   ",
"   XXXXXXoooXXXoooXXX   ",
"      XXXoooXXXooo      ",
"      XXXoooXXXooo      ",
"      XXXoooXXXooo      ",
"...                  ...",
"...                  ...",
"...                  ...",
"........................",
"........................",
"........................"
};
